%TF.GenerationSoftware,KiCad,Pcbnew,7.0.7-7.0.7~ubuntu22.04.1*%
%TF.CreationDate,2023-09-11T12:52:56+09:00*%
%TF.ProjectId,3_2LCD,335f324c-4344-42e6-9b69-6361645f7063,rev?*%
%TF.SameCoordinates,Original*%
%TF.FileFunction,Paste,Bot*%
%TF.FilePolarity,Positive*%
%FSLAX46Y46*%
G04 Gerber Fmt 4.6, Leading zero omitted, Abs format (unit mm)*
G04 Created by KiCad (PCBNEW 7.0.7-7.0.7~ubuntu22.04.1) date 2023-09-11 12:52:56*
%MOMM*%
%LPD*%
G01*
G04 APERTURE LIST*
G04 Aperture macros list*
%AMRoundRect*
0 Rectangle with rounded corners*
0 $1 Rounding radius*
0 $2 $3 $4 $5 $6 $7 $8 $9 X,Y pos of 4 corners*
0 Add a 4 corners polygon primitive as box body*
4,1,4,$2,$3,$4,$5,$6,$7,$8,$9,$2,$3,0*
0 Add four circle primitives for the rounded corners*
1,1,$1+$1,$2,$3*
1,1,$1+$1,$4,$5*
1,1,$1+$1,$6,$7*
1,1,$1+$1,$8,$9*
0 Add four rect primitives between the rounded corners*
20,1,$1+$1,$2,$3,$4,$5,0*
20,1,$1+$1,$4,$5,$6,$7,0*
20,1,$1+$1,$6,$7,$8,$9,0*
20,1,$1+$1,$8,$9,$2,$3,0*%
G04 Aperture macros list end*
%ADD10RoundRect,0.225000X-0.225000X-0.250000X0.225000X-0.250000X0.225000X0.250000X-0.225000X0.250000X0*%
%ADD11RoundRect,0.140000X-0.140000X-0.170000X0.140000X-0.170000X0.140000X0.170000X-0.140000X0.170000X0*%
%ADD12RoundRect,0.200000X0.200000X0.275000X-0.200000X0.275000X-0.200000X-0.275000X0.200000X-0.275000X0*%
%ADD13RoundRect,0.200000X-0.200000X-0.275000X0.200000X-0.275000X0.200000X0.275000X-0.200000X0.275000X0*%
%ADD14R,1.300000X0.300000*%
%ADD15R,2.200000X1.800000*%
%ADD16RoundRect,0.150000X0.587500X0.150000X-0.587500X0.150000X-0.587500X-0.150000X0.587500X-0.150000X0*%
G04 APERTURE END LIST*
D10*
%TO.C,C1*%
X175225000Y-117000000D03*
X176775000Y-117000000D03*
%TD*%
D11*
%TO.C,C2*%
X175520000Y-115500000D03*
X176480000Y-115500000D03*
%TD*%
D12*
%TO.C,R1*%
X183325000Y-130000000D03*
X181675000Y-130000000D03*
%TD*%
D13*
%TO.C,R2*%
X177175000Y-132000000D03*
X178825000Y-132000000D03*
%TD*%
%TO.C,R3*%
X177175000Y-129000000D03*
X178825000Y-129000000D03*
%TD*%
%TO.C,R4*%
X177175000Y-130500000D03*
X178825000Y-130500000D03*
%TD*%
%TO.C,R5*%
X177500000Y-123000000D03*
X179150000Y-123000000D03*
%TD*%
%TO.C,R6*%
X177675000Y-136500000D03*
X179325000Y-136500000D03*
%TD*%
%TO.C,R7*%
X177675000Y-138000000D03*
X179325000Y-138000000D03*
%TD*%
%TO.C,R8*%
X177675000Y-139500000D03*
X179325000Y-139500000D03*
%TD*%
D14*
%TO.C,U1*%
X172850000Y-117250000D03*
X172850000Y-117750000D03*
X172850000Y-118250000D03*
X172850000Y-118750000D03*
X172850000Y-119250000D03*
X172850000Y-119750000D03*
X172850000Y-120250000D03*
X172850000Y-120750000D03*
X172850000Y-121250000D03*
X172850000Y-121750000D03*
X172850000Y-122250000D03*
X172850000Y-122750000D03*
X172850000Y-123250000D03*
X172850000Y-123750000D03*
X172850000Y-124250000D03*
X172850000Y-124750000D03*
X172850000Y-125250000D03*
X172850000Y-125750000D03*
X172850000Y-126250000D03*
X172850000Y-126750000D03*
X172850000Y-127250000D03*
X172850000Y-127750000D03*
X172850000Y-128250000D03*
X172850000Y-128750000D03*
X172850000Y-129750000D03*
X172850000Y-129250000D03*
X172850000Y-130250000D03*
X172850000Y-130750000D03*
X172850000Y-131250000D03*
X172850000Y-131750000D03*
X172850000Y-132250000D03*
X172850000Y-132750000D03*
X172850000Y-133250000D03*
X172850000Y-133750000D03*
X172850000Y-134250000D03*
X172850000Y-134750000D03*
X172850000Y-135250000D03*
X172850000Y-135750000D03*
X172850000Y-136250000D03*
X172850000Y-136750000D03*
D15*
X169600000Y-138650000D03*
X169600000Y-115350000D03*
%TD*%
D13*
%TO.C,R9*%
X177675000Y-135000000D03*
X179325000Y-135000000D03*
%TD*%
D10*
%TO.C,C4*%
X175225000Y-119000000D03*
X176775000Y-119000000D03*
%TD*%
D16*
%TO.C,Q1*%
X183475000Y-133550000D03*
X183475000Y-135450000D03*
X181600000Y-134500000D03*
%TD*%
M02*
