M48
; DRILL file {KiCad 7.0.7-7.0.7~ubuntu22.04.1} date 2023年09月11日 12時51分00秒
; FORMAT={-:-/ absolute / inch / decimal}
; #@! TF.CreationDate,2023-09-11T12:51:00+09:00
; #@! TF.GenerationSoftware,Kicad,Pcbnew,7.0.7-7.0.7~ubuntu22.04.1
; #@! TF.FileFunction,Plated,1,2,PTH
FMAT,2
INCH
; #@! TA.AperFunction,Plated,PTH,ViaDrill
T1C0.0157
; #@! TA.AperFunction,Plated,PTH,ViaDrill
T2C0.0200
; #@! TA.AperFunction,Plated,PTH,ComponentDrill
T3C0.0315
; #@! TA.AperFunction,Plated,PTH,ComponentDrill
T4C0.0394
; #@! TA.AperFunction,Plated,PTH,ComponentDrill
T5C0.1063
%
G90
G05
T1
X6.8652Y-4.7894
X6.9182Y-4.876
X6.9476Y-4.7591
X6.9529Y-4.8144
X7.0Y-4.8976
X7.0148Y-4.7406
X7.1063Y-5.0787
T2
X6.7717Y-4.4291
X7.0472Y-4.5866
X7.1654Y-5.1772
X7.1654Y-5.4331
T3
X6.9488Y-4.3504
X6.9488Y-4.4488
T4
X5.0394Y-4.3504
X5.0394Y-4.4504
X5.0394Y-4.5504
X5.0394Y-4.6504
X5.0394Y-4.7504
X5.0394Y-4.8504
X5.0394Y-4.9504
X5.0394Y-5.0504
X5.0394Y-5.1504
X5.0394Y-5.2504
X5.0394Y-5.3504
X5.0394Y-5.4504
X5.0394Y-5.5504
X5.0394Y-5.6504
X7.1457Y-4.7244
T5
X5.0787Y-4.0354
X5.0787Y-5.9646
X8.3661Y-4.0354
X8.3661Y-5.9646
T0
M30
