%TF.GenerationSoftware,KiCad,Pcbnew,7.0.7-7.0.7~ubuntu22.04.1*%
%TF.CreationDate,2023-09-11T12:59:47+09:00*%
%TF.ProjectId,3_2LCD,335f324c-4344-42e6-9b69-6361645f7063,rev?*%
%TF.SameCoordinates,Original*%
%TF.FileFunction,Legend,Top*%
%TF.FilePolarity,Positive*%
%FSLAX46Y46*%
G04 Gerber Fmt 4.6, Leading zero omitted, Abs format (unit mm)*
G04 Created by KiCad (PCBNEW 7.0.7-7.0.7~ubuntu22.04.1) date 2023-09-11 12:59:47*
%MOMM*%
%LPD*%
G01*
G04 APERTURE LIST*
%ADD10C,0.120000*%
%ADD11C,0.150000*%
G04 APERTURE END LIST*
D10*
X209500000Y-99500000D02*
X209500000Y-154500000D01*
X132000000Y-99500000D02*
X132000000Y-154500000D01*
D11*
X130280112Y-109006729D02*
X131066303Y-109006729D01*
X131066303Y-109006729D02*
X130642969Y-109626005D01*
X130642969Y-109626005D02*
X130824398Y-109626005D01*
X130824398Y-109626005D02*
X130945350Y-109703415D01*
X130945350Y-109703415D02*
X131005826Y-109780824D01*
X131005826Y-109780824D02*
X131066303Y-109935643D01*
X131066303Y-109935643D02*
X131066303Y-110322691D01*
X131066303Y-110322691D02*
X131005826Y-110477510D01*
X131005826Y-110477510D02*
X130945350Y-110554920D01*
X130945350Y-110554920D02*
X130824398Y-110632329D01*
X130824398Y-110632329D02*
X130461541Y-110632329D01*
X130461541Y-110632329D02*
X130340588Y-110554920D01*
X130340588Y-110554920D02*
X130280112Y-110477510D01*
X131429160Y-109006729D02*
X131852493Y-110632329D01*
X131852493Y-110632329D02*
X132275827Y-109006729D01*
X132578207Y-109006729D02*
X133364398Y-109006729D01*
X133364398Y-109006729D02*
X132941064Y-109626005D01*
X132941064Y-109626005D02*
X133122493Y-109626005D01*
X133122493Y-109626005D02*
X133243445Y-109703415D01*
X133243445Y-109703415D02*
X133303921Y-109780824D01*
X133303921Y-109780824D02*
X133364398Y-109935643D01*
X133364398Y-109935643D02*
X133364398Y-110322691D01*
X133364398Y-110322691D02*
X133303921Y-110477510D01*
X133303921Y-110477510D02*
X133243445Y-110554920D01*
X133243445Y-110554920D02*
X133122493Y-110632329D01*
X133122493Y-110632329D02*
X132759636Y-110632329D01*
X132759636Y-110632329D02*
X132638683Y-110554920D01*
X132638683Y-110554920D02*
X132578207Y-110477510D01*
X131066303Y-111701355D02*
X130945350Y-111623945D01*
X130945350Y-111623945D02*
X130763922Y-111623945D01*
X130763922Y-111623945D02*
X130582493Y-111701355D01*
X130582493Y-111701355D02*
X130461541Y-111856174D01*
X130461541Y-111856174D02*
X130401064Y-112010993D01*
X130401064Y-112010993D02*
X130340588Y-112320631D01*
X130340588Y-112320631D02*
X130340588Y-112552859D01*
X130340588Y-112552859D02*
X130401064Y-112862497D01*
X130401064Y-112862497D02*
X130461541Y-113017316D01*
X130461541Y-113017316D02*
X130582493Y-113172136D01*
X130582493Y-113172136D02*
X130763922Y-113249545D01*
X130763922Y-113249545D02*
X130884874Y-113249545D01*
X130884874Y-113249545D02*
X131066303Y-113172136D01*
X131066303Y-113172136D02*
X131126779Y-113094726D01*
X131126779Y-113094726D02*
X131126779Y-112552859D01*
X131126779Y-112552859D02*
X130884874Y-112552859D01*
X131671064Y-113249545D02*
X131671064Y-111623945D01*
X131671064Y-111623945D02*
X132396779Y-113249545D01*
X132396779Y-113249545D02*
X132396779Y-111623945D01*
X133001540Y-113249545D02*
X133001540Y-111623945D01*
X133001540Y-111623945D02*
X133303921Y-111623945D01*
X133303921Y-111623945D02*
X133485350Y-111701355D01*
X133485350Y-111701355D02*
X133606302Y-111856174D01*
X133606302Y-111856174D02*
X133666779Y-112010993D01*
X133666779Y-112010993D02*
X133727255Y-112320631D01*
X133727255Y-112320631D02*
X133727255Y-112552859D01*
X133727255Y-112552859D02*
X133666779Y-112862497D01*
X133666779Y-112862497D02*
X133606302Y-113017316D01*
X133606302Y-113017316D02*
X133485350Y-113172136D01*
X133485350Y-113172136D02*
X133303921Y-113249545D01*
X133303921Y-113249545D02*
X133001540Y-113249545D01*
X131126779Y-115711942D02*
X131066303Y-115789352D01*
X131066303Y-115789352D02*
X130884874Y-115866761D01*
X130884874Y-115866761D02*
X130763922Y-115866761D01*
X130763922Y-115866761D02*
X130582493Y-115789352D01*
X130582493Y-115789352D02*
X130461541Y-115634532D01*
X130461541Y-115634532D02*
X130401064Y-115479713D01*
X130401064Y-115479713D02*
X130340588Y-115170075D01*
X130340588Y-115170075D02*
X130340588Y-114937847D01*
X130340588Y-114937847D02*
X130401064Y-114628209D01*
X130401064Y-114628209D02*
X130461541Y-114473390D01*
X130461541Y-114473390D02*
X130582493Y-114318571D01*
X130582493Y-114318571D02*
X130763922Y-114241161D01*
X130763922Y-114241161D02*
X130884874Y-114241161D01*
X130884874Y-114241161D02*
X131066303Y-114318571D01*
X131066303Y-114318571D02*
X131126779Y-114395980D01*
X131610588Y-115789352D02*
X131792017Y-115866761D01*
X131792017Y-115866761D02*
X132094398Y-115866761D01*
X132094398Y-115866761D02*
X132215350Y-115789352D01*
X132215350Y-115789352D02*
X132275826Y-115711942D01*
X132275826Y-115711942D02*
X132336303Y-115557123D01*
X132336303Y-115557123D02*
X132336303Y-115402304D01*
X132336303Y-115402304D02*
X132275826Y-115247485D01*
X132275826Y-115247485D02*
X132215350Y-115170075D01*
X132215350Y-115170075D02*
X132094398Y-115092666D01*
X132094398Y-115092666D02*
X131852493Y-115015256D01*
X131852493Y-115015256D02*
X131731541Y-114937847D01*
X131731541Y-114937847D02*
X131671064Y-114860437D01*
X131671064Y-114860437D02*
X131610588Y-114705618D01*
X131610588Y-114705618D02*
X131610588Y-114550799D01*
X131610588Y-114550799D02*
X131671064Y-114395980D01*
X131671064Y-114395980D02*
X131731541Y-114318571D01*
X131731541Y-114318571D02*
X131852493Y-114241161D01*
X131852493Y-114241161D02*
X132154874Y-114241161D01*
X132154874Y-114241161D02*
X132336303Y-114318571D01*
X131126779Y-118483977D02*
X130703445Y-117709882D01*
X130401064Y-118483977D02*
X130401064Y-116858377D01*
X130401064Y-116858377D02*
X130884874Y-116858377D01*
X130884874Y-116858377D02*
X131005826Y-116935787D01*
X131005826Y-116935787D02*
X131066303Y-117013196D01*
X131066303Y-117013196D02*
X131126779Y-117168015D01*
X131126779Y-117168015D02*
X131126779Y-117400244D01*
X131126779Y-117400244D02*
X131066303Y-117555063D01*
X131066303Y-117555063D02*
X131005826Y-117632472D01*
X131005826Y-117632472D02*
X130884874Y-117709882D01*
X130884874Y-117709882D02*
X130401064Y-117709882D01*
X131671064Y-117632472D02*
X132094398Y-117632472D01*
X132275826Y-118483977D02*
X131671064Y-118483977D01*
X131671064Y-118483977D02*
X131671064Y-116858377D01*
X131671064Y-116858377D02*
X132275826Y-116858377D01*
X132759636Y-118406568D02*
X132941065Y-118483977D01*
X132941065Y-118483977D02*
X133243446Y-118483977D01*
X133243446Y-118483977D02*
X133364398Y-118406568D01*
X133364398Y-118406568D02*
X133424874Y-118329158D01*
X133424874Y-118329158D02*
X133485351Y-118174339D01*
X133485351Y-118174339D02*
X133485351Y-118019520D01*
X133485351Y-118019520D02*
X133424874Y-117864701D01*
X133424874Y-117864701D02*
X133364398Y-117787291D01*
X133364398Y-117787291D02*
X133243446Y-117709882D01*
X133243446Y-117709882D02*
X133001541Y-117632472D01*
X133001541Y-117632472D02*
X132880589Y-117555063D01*
X132880589Y-117555063D02*
X132820112Y-117477653D01*
X132820112Y-117477653D02*
X132759636Y-117322834D01*
X132759636Y-117322834D02*
X132759636Y-117168015D01*
X132759636Y-117168015D02*
X132820112Y-117013196D01*
X132820112Y-117013196D02*
X132880589Y-116935787D01*
X132880589Y-116935787D02*
X133001541Y-116858377D01*
X133001541Y-116858377D02*
X133303922Y-116858377D01*
X133303922Y-116858377D02*
X133485351Y-116935787D01*
X134029636Y-117632472D02*
X134452970Y-117632472D01*
X134634398Y-118483977D02*
X134029636Y-118483977D01*
X134029636Y-118483977D02*
X134029636Y-116858377D01*
X134029636Y-116858377D02*
X134634398Y-116858377D01*
X134997256Y-116858377D02*
X135722970Y-116858377D01*
X135360113Y-118483977D02*
X135360113Y-116858377D01*
X130401064Y-121101193D02*
X130401064Y-119475593D01*
X130401064Y-119475593D02*
X130703445Y-119475593D01*
X130703445Y-119475593D02*
X130884874Y-119553003D01*
X130884874Y-119553003D02*
X131005826Y-119707822D01*
X131005826Y-119707822D02*
X131066303Y-119862641D01*
X131066303Y-119862641D02*
X131126779Y-120172279D01*
X131126779Y-120172279D02*
X131126779Y-120404507D01*
X131126779Y-120404507D02*
X131066303Y-120714145D01*
X131066303Y-120714145D02*
X131005826Y-120868964D01*
X131005826Y-120868964D02*
X130884874Y-121023784D01*
X130884874Y-121023784D02*
X130703445Y-121101193D01*
X130703445Y-121101193D02*
X130401064Y-121101193D01*
X132396779Y-120946374D02*
X132336303Y-121023784D01*
X132336303Y-121023784D02*
X132154874Y-121101193D01*
X132154874Y-121101193D02*
X132033922Y-121101193D01*
X132033922Y-121101193D02*
X131852493Y-121023784D01*
X131852493Y-121023784D02*
X131731541Y-120868964D01*
X131731541Y-120868964D02*
X131671064Y-120714145D01*
X131671064Y-120714145D02*
X131610588Y-120404507D01*
X131610588Y-120404507D02*
X131610588Y-120172279D01*
X131610588Y-120172279D02*
X131671064Y-119862641D01*
X131671064Y-119862641D02*
X131731541Y-119707822D01*
X131731541Y-119707822D02*
X131852493Y-119553003D01*
X131852493Y-119553003D02*
X132033922Y-119475593D01*
X132033922Y-119475593D02*
X132154874Y-119475593D01*
X132154874Y-119475593D02*
X132336303Y-119553003D01*
X132336303Y-119553003D02*
X132396779Y-119630412D01*
X133848207Y-119398184D02*
X132759636Y-121488241D01*
X134997255Y-121101193D02*
X134573921Y-120327098D01*
X134271540Y-121101193D02*
X134271540Y-119475593D01*
X134271540Y-119475593D02*
X134755350Y-119475593D01*
X134755350Y-119475593D02*
X134876302Y-119553003D01*
X134876302Y-119553003D02*
X134936779Y-119630412D01*
X134936779Y-119630412D02*
X134997255Y-119785231D01*
X134997255Y-119785231D02*
X134997255Y-120017460D01*
X134997255Y-120017460D02*
X134936779Y-120172279D01*
X134936779Y-120172279D02*
X134876302Y-120249688D01*
X134876302Y-120249688D02*
X134755350Y-120327098D01*
X134755350Y-120327098D02*
X134271540Y-120327098D01*
X135481064Y-121023784D02*
X135662493Y-121101193D01*
X135662493Y-121101193D02*
X135964874Y-121101193D01*
X135964874Y-121101193D02*
X136085826Y-121023784D01*
X136085826Y-121023784D02*
X136146302Y-120946374D01*
X136146302Y-120946374D02*
X136206779Y-120791555D01*
X136206779Y-120791555D02*
X136206779Y-120636736D01*
X136206779Y-120636736D02*
X136146302Y-120481917D01*
X136146302Y-120481917D02*
X136085826Y-120404507D01*
X136085826Y-120404507D02*
X135964874Y-120327098D01*
X135964874Y-120327098D02*
X135722969Y-120249688D01*
X135722969Y-120249688D02*
X135602017Y-120172279D01*
X135602017Y-120172279D02*
X135541540Y-120094869D01*
X135541540Y-120094869D02*
X135481064Y-119940050D01*
X135481064Y-119940050D02*
X135481064Y-119785231D01*
X135481064Y-119785231D02*
X135541540Y-119630412D01*
X135541540Y-119630412D02*
X135602017Y-119553003D01*
X135602017Y-119553003D02*
X135722969Y-119475593D01*
X135722969Y-119475593D02*
X136025350Y-119475593D01*
X136025350Y-119475593D02*
X136206779Y-119553003D01*
X130340588Y-123641000D02*
X130522017Y-123718409D01*
X130522017Y-123718409D02*
X130824398Y-123718409D01*
X130824398Y-123718409D02*
X130945350Y-123641000D01*
X130945350Y-123641000D02*
X131005826Y-123563590D01*
X131005826Y-123563590D02*
X131066303Y-123408771D01*
X131066303Y-123408771D02*
X131066303Y-123253952D01*
X131066303Y-123253952D02*
X131005826Y-123099133D01*
X131005826Y-123099133D02*
X130945350Y-123021723D01*
X130945350Y-123021723D02*
X130824398Y-122944314D01*
X130824398Y-122944314D02*
X130582493Y-122866904D01*
X130582493Y-122866904D02*
X130461541Y-122789495D01*
X130461541Y-122789495D02*
X130401064Y-122712085D01*
X130401064Y-122712085D02*
X130340588Y-122557266D01*
X130340588Y-122557266D02*
X130340588Y-122402447D01*
X130340588Y-122402447D02*
X130401064Y-122247628D01*
X130401064Y-122247628D02*
X130461541Y-122170219D01*
X130461541Y-122170219D02*
X130582493Y-122092809D01*
X130582493Y-122092809D02*
X130884874Y-122092809D01*
X130884874Y-122092809D02*
X131066303Y-122170219D01*
X131610588Y-123718409D02*
X131610588Y-122092809D01*
X131610588Y-122092809D02*
X131912969Y-122092809D01*
X131912969Y-122092809D02*
X132094398Y-122170219D01*
X132094398Y-122170219D02*
X132215350Y-122325038D01*
X132215350Y-122325038D02*
X132275827Y-122479857D01*
X132275827Y-122479857D02*
X132336303Y-122789495D01*
X132336303Y-122789495D02*
X132336303Y-123021723D01*
X132336303Y-123021723D02*
X132275827Y-123331361D01*
X132275827Y-123331361D02*
X132215350Y-123486180D01*
X132215350Y-123486180D02*
X132094398Y-123641000D01*
X132094398Y-123641000D02*
X131912969Y-123718409D01*
X131912969Y-123718409D02*
X131610588Y-123718409D01*
X132880588Y-123718409D02*
X132880588Y-122092809D01*
X133848208Y-124337685D02*
X133787731Y-124260276D01*
X133787731Y-124260276D02*
X133666779Y-124028047D01*
X133666779Y-124028047D02*
X133606303Y-123873228D01*
X133606303Y-123873228D02*
X133545827Y-123641000D01*
X133545827Y-123641000D02*
X133485350Y-123253952D01*
X133485350Y-123253952D02*
X133485350Y-122944314D01*
X133485350Y-122944314D02*
X133545827Y-122557266D01*
X133545827Y-122557266D02*
X133606303Y-122325038D01*
X133606303Y-122325038D02*
X133666779Y-122170219D01*
X133666779Y-122170219D02*
X133787731Y-121937990D01*
X133787731Y-121937990D02*
X133848208Y-121860580D01*
X134332017Y-123718409D02*
X134332017Y-122092809D01*
X134332017Y-122092809D02*
X134755351Y-123253952D01*
X134755351Y-123253952D02*
X135178684Y-122092809D01*
X135178684Y-122092809D02*
X135178684Y-123718409D01*
X136025351Y-122092809D02*
X136267256Y-122092809D01*
X136267256Y-122092809D02*
X136388208Y-122170219D01*
X136388208Y-122170219D02*
X136509161Y-122325038D01*
X136509161Y-122325038D02*
X136569637Y-122634676D01*
X136569637Y-122634676D02*
X136569637Y-123176542D01*
X136569637Y-123176542D02*
X136509161Y-123486180D01*
X136509161Y-123486180D02*
X136388208Y-123641000D01*
X136388208Y-123641000D02*
X136267256Y-123718409D01*
X136267256Y-123718409D02*
X136025351Y-123718409D01*
X136025351Y-123718409D02*
X135904399Y-123641000D01*
X135904399Y-123641000D02*
X135783446Y-123486180D01*
X135783446Y-123486180D02*
X135722970Y-123176542D01*
X135722970Y-123176542D02*
X135722970Y-122634676D01*
X135722970Y-122634676D02*
X135783446Y-122325038D01*
X135783446Y-122325038D02*
X135904399Y-122170219D01*
X135904399Y-122170219D02*
X136025351Y-122092809D01*
X137053446Y-123641000D02*
X137234875Y-123718409D01*
X137234875Y-123718409D02*
X137537256Y-123718409D01*
X137537256Y-123718409D02*
X137658208Y-123641000D01*
X137658208Y-123641000D02*
X137718684Y-123563590D01*
X137718684Y-123563590D02*
X137779161Y-123408771D01*
X137779161Y-123408771D02*
X137779161Y-123253952D01*
X137779161Y-123253952D02*
X137718684Y-123099133D01*
X137718684Y-123099133D02*
X137658208Y-123021723D01*
X137658208Y-123021723D02*
X137537256Y-122944314D01*
X137537256Y-122944314D02*
X137295351Y-122866904D01*
X137295351Y-122866904D02*
X137174399Y-122789495D01*
X137174399Y-122789495D02*
X137113922Y-122712085D01*
X137113922Y-122712085D02*
X137053446Y-122557266D01*
X137053446Y-122557266D02*
X137053446Y-122402447D01*
X137053446Y-122402447D02*
X137113922Y-122247628D01*
X137113922Y-122247628D02*
X137174399Y-122170219D01*
X137174399Y-122170219D02*
X137295351Y-122092809D01*
X137295351Y-122092809D02*
X137597732Y-122092809D01*
X137597732Y-122092809D02*
X137779161Y-122170219D01*
X138323446Y-123718409D02*
X138323446Y-122092809D01*
X138807256Y-124337685D02*
X138867732Y-124260276D01*
X138867732Y-124260276D02*
X138988685Y-124028047D01*
X138988685Y-124028047D02*
X139049161Y-123873228D01*
X139049161Y-123873228D02*
X139109637Y-123641000D01*
X139109637Y-123641000D02*
X139170113Y-123253952D01*
X139170113Y-123253952D02*
X139170113Y-122944314D01*
X139170113Y-122944314D02*
X139109637Y-122557266D01*
X139109637Y-122557266D02*
X139049161Y-122325038D01*
X139049161Y-122325038D02*
X138988685Y-122170219D01*
X138988685Y-122170219D02*
X138867732Y-121937990D01*
X138867732Y-121937990D02*
X138807256Y-121860580D01*
X130340588Y-126258216D02*
X130522017Y-126335625D01*
X130522017Y-126335625D02*
X130824398Y-126335625D01*
X130824398Y-126335625D02*
X130945350Y-126258216D01*
X130945350Y-126258216D02*
X131005826Y-126180806D01*
X131005826Y-126180806D02*
X131066303Y-126025987D01*
X131066303Y-126025987D02*
X131066303Y-125871168D01*
X131066303Y-125871168D02*
X131005826Y-125716349D01*
X131005826Y-125716349D02*
X130945350Y-125638939D01*
X130945350Y-125638939D02*
X130824398Y-125561530D01*
X130824398Y-125561530D02*
X130582493Y-125484120D01*
X130582493Y-125484120D02*
X130461541Y-125406711D01*
X130461541Y-125406711D02*
X130401064Y-125329301D01*
X130401064Y-125329301D02*
X130340588Y-125174482D01*
X130340588Y-125174482D02*
X130340588Y-125019663D01*
X130340588Y-125019663D02*
X130401064Y-124864844D01*
X130401064Y-124864844D02*
X130461541Y-124787435D01*
X130461541Y-124787435D02*
X130582493Y-124710025D01*
X130582493Y-124710025D02*
X130884874Y-124710025D01*
X130884874Y-124710025D02*
X131066303Y-124787435D01*
X132336303Y-126180806D02*
X132275827Y-126258216D01*
X132275827Y-126258216D02*
X132094398Y-126335625D01*
X132094398Y-126335625D02*
X131973446Y-126335625D01*
X131973446Y-126335625D02*
X131792017Y-126258216D01*
X131792017Y-126258216D02*
X131671065Y-126103396D01*
X131671065Y-126103396D02*
X131610588Y-125948577D01*
X131610588Y-125948577D02*
X131550112Y-125638939D01*
X131550112Y-125638939D02*
X131550112Y-125406711D01*
X131550112Y-125406711D02*
X131610588Y-125097073D01*
X131610588Y-125097073D02*
X131671065Y-124942254D01*
X131671065Y-124942254D02*
X131792017Y-124787435D01*
X131792017Y-124787435D02*
X131973446Y-124710025D01*
X131973446Y-124710025D02*
X132094398Y-124710025D01*
X132094398Y-124710025D02*
X132275827Y-124787435D01*
X132275827Y-124787435D02*
X132336303Y-124864844D01*
X132880588Y-126335625D02*
X132880588Y-124710025D01*
X133606303Y-126335625D02*
X133062017Y-125406711D01*
X133606303Y-124710025D02*
X132880588Y-125638939D01*
X131005826Y-128952841D02*
X130401064Y-128952841D01*
X130401064Y-128952841D02*
X130401064Y-127327241D01*
X131429159Y-128101336D02*
X131852493Y-128101336D01*
X132033921Y-128952841D02*
X131429159Y-128952841D01*
X131429159Y-128952841D02*
X131429159Y-127327241D01*
X131429159Y-127327241D02*
X132033921Y-127327241D01*
X132578207Y-128952841D02*
X132578207Y-127327241D01*
X132578207Y-127327241D02*
X132880588Y-127327241D01*
X132880588Y-127327241D02*
X133062017Y-127404651D01*
X133062017Y-127404651D02*
X133182969Y-127559470D01*
X133182969Y-127559470D02*
X133243446Y-127714289D01*
X133243446Y-127714289D02*
X133303922Y-128023927D01*
X133303922Y-128023927D02*
X133303922Y-128256155D01*
X133303922Y-128256155D02*
X133243446Y-128565793D01*
X133243446Y-128565793D02*
X133182969Y-128720612D01*
X133182969Y-128720612D02*
X133062017Y-128875432D01*
X133062017Y-128875432D02*
X132880588Y-128952841D01*
X132880588Y-128952841D02*
X132578207Y-128952841D01*
X130340588Y-131492648D02*
X130522017Y-131570057D01*
X130522017Y-131570057D02*
X130824398Y-131570057D01*
X130824398Y-131570057D02*
X130945350Y-131492648D01*
X130945350Y-131492648D02*
X131005826Y-131415238D01*
X131005826Y-131415238D02*
X131066303Y-131260419D01*
X131066303Y-131260419D02*
X131066303Y-131105600D01*
X131066303Y-131105600D02*
X131005826Y-130950781D01*
X131005826Y-130950781D02*
X130945350Y-130873371D01*
X130945350Y-130873371D02*
X130824398Y-130795962D01*
X130824398Y-130795962D02*
X130582493Y-130718552D01*
X130582493Y-130718552D02*
X130461541Y-130641143D01*
X130461541Y-130641143D02*
X130401064Y-130563733D01*
X130401064Y-130563733D02*
X130340588Y-130408914D01*
X130340588Y-130408914D02*
X130340588Y-130254095D01*
X130340588Y-130254095D02*
X130401064Y-130099276D01*
X130401064Y-130099276D02*
X130461541Y-130021867D01*
X130461541Y-130021867D02*
X130582493Y-129944457D01*
X130582493Y-129944457D02*
X130884874Y-129944457D01*
X130884874Y-129944457D02*
X131066303Y-130021867D01*
X131610588Y-131570057D02*
X131610588Y-129944457D01*
X131610588Y-129944457D02*
X131912969Y-129944457D01*
X131912969Y-129944457D02*
X132094398Y-130021867D01*
X132094398Y-130021867D02*
X132215350Y-130176686D01*
X132215350Y-130176686D02*
X132275827Y-130331505D01*
X132275827Y-130331505D02*
X132336303Y-130641143D01*
X132336303Y-130641143D02*
X132336303Y-130873371D01*
X132336303Y-130873371D02*
X132275827Y-131183009D01*
X132275827Y-131183009D02*
X132215350Y-131337828D01*
X132215350Y-131337828D02*
X132094398Y-131492648D01*
X132094398Y-131492648D02*
X131912969Y-131570057D01*
X131912969Y-131570057D02*
X131610588Y-131570057D01*
X133122493Y-129944457D02*
X133364398Y-129944457D01*
X133364398Y-129944457D02*
X133485350Y-130021867D01*
X133485350Y-130021867D02*
X133606303Y-130176686D01*
X133606303Y-130176686D02*
X133666779Y-130486324D01*
X133666779Y-130486324D02*
X133666779Y-131028190D01*
X133666779Y-131028190D02*
X133606303Y-131337828D01*
X133606303Y-131337828D02*
X133485350Y-131492648D01*
X133485350Y-131492648D02*
X133364398Y-131570057D01*
X133364398Y-131570057D02*
X133122493Y-131570057D01*
X133122493Y-131570057D02*
X133001541Y-131492648D01*
X133001541Y-131492648D02*
X132880588Y-131337828D01*
X132880588Y-131337828D02*
X132820112Y-131028190D01*
X132820112Y-131028190D02*
X132820112Y-130486324D01*
X132820112Y-130486324D02*
X132880588Y-130176686D01*
X132880588Y-130176686D02*
X133001541Y-130021867D01*
X133001541Y-130021867D02*
X133122493Y-129944457D01*
X134573922Y-132189333D02*
X134513445Y-132111924D01*
X134513445Y-132111924D02*
X134392493Y-131879695D01*
X134392493Y-131879695D02*
X134332017Y-131724876D01*
X134332017Y-131724876D02*
X134271541Y-131492648D01*
X134271541Y-131492648D02*
X134211064Y-131105600D01*
X134211064Y-131105600D02*
X134211064Y-130795962D01*
X134211064Y-130795962D02*
X134271541Y-130408914D01*
X134271541Y-130408914D02*
X134332017Y-130176686D01*
X134332017Y-130176686D02*
X134392493Y-130021867D01*
X134392493Y-130021867D02*
X134513445Y-129789638D01*
X134513445Y-129789638D02*
X134573922Y-129712228D01*
X135057731Y-131570057D02*
X135057731Y-129944457D01*
X135057731Y-129944457D02*
X135481065Y-131105600D01*
X135481065Y-131105600D02*
X135904398Y-129944457D01*
X135904398Y-129944457D02*
X135904398Y-131570057D01*
X136509160Y-131570057D02*
X136509160Y-129944457D01*
X137053446Y-131492648D02*
X137234875Y-131570057D01*
X137234875Y-131570057D02*
X137537256Y-131570057D01*
X137537256Y-131570057D02*
X137658208Y-131492648D01*
X137658208Y-131492648D02*
X137718684Y-131415238D01*
X137718684Y-131415238D02*
X137779161Y-131260419D01*
X137779161Y-131260419D02*
X137779161Y-131105600D01*
X137779161Y-131105600D02*
X137718684Y-130950781D01*
X137718684Y-130950781D02*
X137658208Y-130873371D01*
X137658208Y-130873371D02*
X137537256Y-130795962D01*
X137537256Y-130795962D02*
X137295351Y-130718552D01*
X137295351Y-130718552D02*
X137174399Y-130641143D01*
X137174399Y-130641143D02*
X137113922Y-130563733D01*
X137113922Y-130563733D02*
X137053446Y-130408914D01*
X137053446Y-130408914D02*
X137053446Y-130254095D01*
X137053446Y-130254095D02*
X137113922Y-130099276D01*
X137113922Y-130099276D02*
X137174399Y-130021867D01*
X137174399Y-130021867D02*
X137295351Y-129944457D01*
X137295351Y-129944457D02*
X137597732Y-129944457D01*
X137597732Y-129944457D02*
X137779161Y-130021867D01*
X138565351Y-129944457D02*
X138807256Y-129944457D01*
X138807256Y-129944457D02*
X138928208Y-130021867D01*
X138928208Y-130021867D02*
X139049161Y-130176686D01*
X139049161Y-130176686D02*
X139109637Y-130486324D01*
X139109637Y-130486324D02*
X139109637Y-131028190D01*
X139109637Y-131028190D02*
X139049161Y-131337828D01*
X139049161Y-131337828D02*
X138928208Y-131492648D01*
X138928208Y-131492648D02*
X138807256Y-131570057D01*
X138807256Y-131570057D02*
X138565351Y-131570057D01*
X138565351Y-131570057D02*
X138444399Y-131492648D01*
X138444399Y-131492648D02*
X138323446Y-131337828D01*
X138323446Y-131337828D02*
X138262970Y-131028190D01*
X138262970Y-131028190D02*
X138262970Y-130486324D01*
X138262970Y-130486324D02*
X138323446Y-130176686D01*
X138323446Y-130176686D02*
X138444399Y-130021867D01*
X138444399Y-130021867D02*
X138565351Y-129944457D01*
X139532970Y-132189333D02*
X139593446Y-132111924D01*
X139593446Y-132111924D02*
X139714399Y-131879695D01*
X139714399Y-131879695D02*
X139774875Y-131724876D01*
X139774875Y-131724876D02*
X139835351Y-131492648D01*
X139835351Y-131492648D02*
X139895827Y-131105600D01*
X139895827Y-131105600D02*
X139895827Y-130795962D01*
X139895827Y-130795962D02*
X139835351Y-130408914D01*
X139835351Y-130408914D02*
X139774875Y-130176686D01*
X139774875Y-130176686D02*
X139714399Y-130021867D01*
X139714399Y-130021867D02*
X139593446Y-129789638D01*
X139593446Y-129789638D02*
X139532970Y-129712228D01*
X130401064Y-134187273D02*
X130401064Y-132561673D01*
X130401064Y-132561673D02*
X131126779Y-134187273D01*
X131126779Y-134187273D02*
X131126779Y-132561673D01*
X132457255Y-134032454D02*
X132396779Y-134109864D01*
X132396779Y-134109864D02*
X132215350Y-134187273D01*
X132215350Y-134187273D02*
X132094398Y-134187273D01*
X132094398Y-134187273D02*
X131912969Y-134109864D01*
X131912969Y-134109864D02*
X131792017Y-133955044D01*
X131792017Y-133955044D02*
X131731540Y-133800225D01*
X131731540Y-133800225D02*
X131671064Y-133490587D01*
X131671064Y-133490587D02*
X131671064Y-133258359D01*
X131671064Y-133258359D02*
X131731540Y-132948721D01*
X131731540Y-132948721D02*
X131792017Y-132793902D01*
X131792017Y-132793902D02*
X131912969Y-132639083D01*
X131912969Y-132639083D02*
X132094398Y-132561673D01*
X132094398Y-132561673D02*
X132215350Y-132561673D01*
X132215350Y-132561673D02*
X132396779Y-132639083D01*
X132396779Y-132639083D02*
X132457255Y-132716492D01*
X130401064Y-136804489D02*
X130401064Y-135178889D01*
X130401064Y-135178889D02*
X131126779Y-136804489D01*
X131126779Y-136804489D02*
X131126779Y-135178889D01*
X132457255Y-136649670D02*
X132396779Y-136727080D01*
X132396779Y-136727080D02*
X132215350Y-136804489D01*
X132215350Y-136804489D02*
X132094398Y-136804489D01*
X132094398Y-136804489D02*
X131912969Y-136727080D01*
X131912969Y-136727080D02*
X131792017Y-136572260D01*
X131792017Y-136572260D02*
X131731540Y-136417441D01*
X131731540Y-136417441D02*
X131671064Y-136107803D01*
X131671064Y-136107803D02*
X131671064Y-135875575D01*
X131671064Y-135875575D02*
X131731540Y-135565937D01*
X131731540Y-135565937D02*
X131792017Y-135411118D01*
X131792017Y-135411118D02*
X131912969Y-135256299D01*
X131912969Y-135256299D02*
X132094398Y-135178889D01*
X132094398Y-135178889D02*
X132215350Y-135178889D01*
X132215350Y-135178889D02*
X132396779Y-135256299D01*
X132396779Y-135256299D02*
X132457255Y-135333708D01*
X130401064Y-139421705D02*
X130401064Y-137796105D01*
X130401064Y-137796105D02*
X131126779Y-139421705D01*
X131126779Y-139421705D02*
X131126779Y-137796105D01*
X132457255Y-139266886D02*
X132396779Y-139344296D01*
X132396779Y-139344296D02*
X132215350Y-139421705D01*
X132215350Y-139421705D02*
X132094398Y-139421705D01*
X132094398Y-139421705D02*
X131912969Y-139344296D01*
X131912969Y-139344296D02*
X131792017Y-139189476D01*
X131792017Y-139189476D02*
X131731540Y-139034657D01*
X131731540Y-139034657D02*
X131671064Y-138725019D01*
X131671064Y-138725019D02*
X131671064Y-138492791D01*
X131671064Y-138492791D02*
X131731540Y-138183153D01*
X131731540Y-138183153D02*
X131792017Y-138028334D01*
X131792017Y-138028334D02*
X131912969Y-137873515D01*
X131912969Y-137873515D02*
X132094398Y-137796105D01*
X132094398Y-137796105D02*
X132215350Y-137796105D01*
X132215350Y-137796105D02*
X132396779Y-137873515D01*
X132396779Y-137873515D02*
X132457255Y-137950924D01*
X130401064Y-142038921D02*
X130401064Y-140413321D01*
X130401064Y-140413321D02*
X131126779Y-142038921D01*
X131126779Y-142038921D02*
X131126779Y-140413321D01*
X132457255Y-141884102D02*
X132396779Y-141961512D01*
X132396779Y-141961512D02*
X132215350Y-142038921D01*
X132215350Y-142038921D02*
X132094398Y-142038921D01*
X132094398Y-142038921D02*
X131912969Y-141961512D01*
X131912969Y-141961512D02*
X131792017Y-141806692D01*
X131792017Y-141806692D02*
X131731540Y-141651873D01*
X131731540Y-141651873D02*
X131671064Y-141342235D01*
X131671064Y-141342235D02*
X131671064Y-141110007D01*
X131671064Y-141110007D02*
X131731540Y-140800369D01*
X131731540Y-140800369D02*
X131792017Y-140645550D01*
X131792017Y-140645550D02*
X131912969Y-140490731D01*
X131912969Y-140490731D02*
X132094398Y-140413321D01*
X132094398Y-140413321D02*
X132215350Y-140413321D01*
X132215350Y-140413321D02*
X132396779Y-140490731D01*
X132396779Y-140490731D02*
X132457255Y-140568140D01*
X130401064Y-144656137D02*
X130401064Y-143030537D01*
X130401064Y-143030537D02*
X131126779Y-144656137D01*
X131126779Y-144656137D02*
X131126779Y-143030537D01*
X132457255Y-144501318D02*
X132396779Y-144578728D01*
X132396779Y-144578728D02*
X132215350Y-144656137D01*
X132215350Y-144656137D02*
X132094398Y-144656137D01*
X132094398Y-144656137D02*
X131912969Y-144578728D01*
X131912969Y-144578728D02*
X131792017Y-144423908D01*
X131792017Y-144423908D02*
X131731540Y-144269089D01*
X131731540Y-144269089D02*
X131671064Y-143959451D01*
X131671064Y-143959451D02*
X131671064Y-143727223D01*
X131671064Y-143727223D02*
X131731540Y-143417585D01*
X131731540Y-143417585D02*
X131792017Y-143262766D01*
X131792017Y-143262766D02*
X131912969Y-143107947D01*
X131912969Y-143107947D02*
X132094398Y-143030537D01*
X132094398Y-143030537D02*
X132215350Y-143030537D01*
X132215350Y-143030537D02*
X132396779Y-143107947D01*
X132396779Y-143107947D02*
X132457255Y-143185356D01*
X173109580Y-111916666D02*
X173157200Y-111964285D01*
X173157200Y-111964285D02*
X173204819Y-112107142D01*
X173204819Y-112107142D02*
X173204819Y-112202380D01*
X173204819Y-112202380D02*
X173157200Y-112345237D01*
X173157200Y-112345237D02*
X173061961Y-112440475D01*
X173061961Y-112440475D02*
X172966723Y-112488094D01*
X172966723Y-112488094D02*
X172776247Y-112535713D01*
X172776247Y-112535713D02*
X172633390Y-112535713D01*
X172633390Y-112535713D02*
X172442914Y-112488094D01*
X172442914Y-112488094D02*
X172347676Y-112440475D01*
X172347676Y-112440475D02*
X172252438Y-112345237D01*
X172252438Y-112345237D02*
X172204819Y-112202380D01*
X172204819Y-112202380D02*
X172204819Y-112107142D01*
X172204819Y-112107142D02*
X172252438Y-111964285D01*
X172252438Y-111964285D02*
X172300057Y-111916666D01*
X172204819Y-111583332D02*
X172204819Y-110964285D01*
X172204819Y-110964285D02*
X172585771Y-111297618D01*
X172585771Y-111297618D02*
X172585771Y-111154761D01*
X172585771Y-111154761D02*
X172633390Y-111059523D01*
X172633390Y-111059523D02*
X172681009Y-111011904D01*
X172681009Y-111011904D02*
X172776247Y-110964285D01*
X172776247Y-110964285D02*
X173014342Y-110964285D01*
X173014342Y-110964285D02*
X173109580Y-111011904D01*
X173109580Y-111011904D02*
X173157200Y-111059523D01*
X173157200Y-111059523D02*
X173204819Y-111154761D01*
X173204819Y-111154761D02*
X173204819Y-111440475D01*
X173204819Y-111440475D02*
X173157200Y-111535713D01*
X173157200Y-111535713D02*
X173109580Y-111583332D01*
X127666666Y-107624819D02*
X127666666Y-108339104D01*
X127666666Y-108339104D02*
X127619047Y-108481961D01*
X127619047Y-108481961D02*
X127523809Y-108577200D01*
X127523809Y-108577200D02*
X127380952Y-108624819D01*
X127380952Y-108624819D02*
X127285714Y-108624819D01*
X128666666Y-108624819D02*
X128095238Y-108624819D01*
X128380952Y-108624819D02*
X128380952Y-107624819D01*
X128380952Y-107624819D02*
X128285714Y-107767676D01*
X128285714Y-107767676D02*
X128190476Y-107862914D01*
X128190476Y-107862914D02*
X128095238Y-107910533D01*
D10*
%TO.C,C3*%
X175025000Y-114554775D02*
X175025000Y-114054775D01*
X174775000Y-114304775D02*
X175275000Y-114304775D01*
X173920000Y-111750000D02*
X179080000Y-111750000D01*
X173920000Y-111710000D02*
X179080000Y-111710000D01*
X173921000Y-111670000D02*
X179079000Y-111670000D01*
X173922000Y-111630000D02*
X179078000Y-111630000D01*
X173924000Y-111590000D02*
X179076000Y-111590000D01*
X173927000Y-111550000D02*
X179073000Y-111550000D01*
X173931000Y-111510000D02*
X175460000Y-111510000D01*
X177540000Y-111510000D02*
X179069000Y-111510000D01*
X173935000Y-111470000D02*
X175460000Y-111470000D01*
X177540000Y-111470000D02*
X179065000Y-111470000D01*
X173939000Y-111430000D02*
X175460000Y-111430000D01*
X177540000Y-111430000D02*
X179061000Y-111430000D01*
X173944000Y-111390000D02*
X175460000Y-111390000D01*
X177540000Y-111390000D02*
X179056000Y-111390000D01*
X173950000Y-111350000D02*
X175460000Y-111350000D01*
X177540000Y-111350000D02*
X179050000Y-111350000D01*
X173957000Y-111310000D02*
X175460000Y-111310000D01*
X177540000Y-111310000D02*
X179043000Y-111310000D01*
X173964000Y-111270000D02*
X175460000Y-111270000D01*
X177540000Y-111270000D02*
X179036000Y-111270000D01*
X173972000Y-111230000D02*
X175460000Y-111230000D01*
X177540000Y-111230000D02*
X179028000Y-111230000D01*
X173980000Y-111190000D02*
X175460000Y-111190000D01*
X177540000Y-111190000D02*
X179020000Y-111190000D01*
X173989000Y-111150000D02*
X175460000Y-111150000D01*
X177540000Y-111150000D02*
X179011000Y-111150000D01*
X173999000Y-111110000D02*
X175460000Y-111110000D01*
X177540000Y-111110000D02*
X179001000Y-111110000D01*
X174009000Y-111070000D02*
X175460000Y-111070000D01*
X177540000Y-111070000D02*
X178991000Y-111070000D01*
X174020000Y-111029000D02*
X175460000Y-111029000D01*
X177540000Y-111029000D02*
X178980000Y-111029000D01*
X174032000Y-110989000D02*
X175460000Y-110989000D01*
X177540000Y-110989000D02*
X178968000Y-110989000D01*
X174045000Y-110949000D02*
X175460000Y-110949000D01*
X177540000Y-110949000D02*
X178955000Y-110949000D01*
X174058000Y-110909000D02*
X175460000Y-110909000D01*
X177540000Y-110909000D02*
X178942000Y-110909000D01*
X174072000Y-110869000D02*
X175460000Y-110869000D01*
X177540000Y-110869000D02*
X178928000Y-110869000D01*
X174086000Y-110829000D02*
X175460000Y-110829000D01*
X177540000Y-110829000D02*
X178914000Y-110829000D01*
X174102000Y-110789000D02*
X175460000Y-110789000D01*
X177540000Y-110789000D02*
X178898000Y-110789000D01*
X174118000Y-110749000D02*
X175460000Y-110749000D01*
X177540000Y-110749000D02*
X178882000Y-110749000D01*
X174135000Y-110709000D02*
X175460000Y-110709000D01*
X177540000Y-110709000D02*
X178865000Y-110709000D01*
X174152000Y-110669000D02*
X175460000Y-110669000D01*
X177540000Y-110669000D02*
X178848000Y-110669000D01*
X174171000Y-110629000D02*
X175460000Y-110629000D01*
X177540000Y-110629000D02*
X178829000Y-110629000D01*
X174190000Y-110589000D02*
X175460000Y-110589000D01*
X177540000Y-110589000D02*
X178810000Y-110589000D01*
X174210000Y-110549000D02*
X175460000Y-110549000D01*
X177540000Y-110549000D02*
X178790000Y-110549000D01*
X174232000Y-110509000D02*
X175460000Y-110509000D01*
X177540000Y-110509000D02*
X178768000Y-110509000D01*
X174253000Y-110469000D02*
X175460000Y-110469000D01*
X177540000Y-110469000D02*
X178747000Y-110469000D01*
X174276000Y-110429000D02*
X175460000Y-110429000D01*
X177540000Y-110429000D02*
X178724000Y-110429000D01*
X174300000Y-110389000D02*
X175460000Y-110389000D01*
X177540000Y-110389000D02*
X178700000Y-110389000D01*
X174325000Y-110349000D02*
X175460000Y-110349000D01*
X177540000Y-110349000D02*
X178675000Y-110349000D01*
X174351000Y-110309000D02*
X175460000Y-110309000D01*
X177540000Y-110309000D02*
X178649000Y-110309000D01*
X174378000Y-110269000D02*
X175460000Y-110269000D01*
X177540000Y-110269000D02*
X178622000Y-110269000D01*
X174405000Y-110229000D02*
X175460000Y-110229000D01*
X177540000Y-110229000D02*
X178595000Y-110229000D01*
X174435000Y-110189000D02*
X175460000Y-110189000D01*
X177540000Y-110189000D02*
X178565000Y-110189000D01*
X174465000Y-110149000D02*
X175460000Y-110149000D01*
X177540000Y-110149000D02*
X178535000Y-110149000D01*
X174496000Y-110109000D02*
X175460000Y-110109000D01*
X177540000Y-110109000D02*
X178504000Y-110109000D01*
X174529000Y-110069000D02*
X175460000Y-110069000D01*
X177540000Y-110069000D02*
X178471000Y-110069000D01*
X174563000Y-110029000D02*
X175460000Y-110029000D01*
X177540000Y-110029000D02*
X178437000Y-110029000D01*
X174599000Y-109989000D02*
X175460000Y-109989000D01*
X177540000Y-109989000D02*
X178401000Y-109989000D01*
X174636000Y-109949000D02*
X175460000Y-109949000D01*
X177540000Y-109949000D02*
X178364000Y-109949000D01*
X174674000Y-109909000D02*
X175460000Y-109909000D01*
X177540000Y-109909000D02*
X178326000Y-109909000D01*
X174715000Y-109869000D02*
X175460000Y-109869000D01*
X177540000Y-109869000D02*
X178285000Y-109869000D01*
X174757000Y-109829000D02*
X175460000Y-109829000D01*
X177540000Y-109829000D02*
X178243000Y-109829000D01*
X174801000Y-109789000D02*
X175460000Y-109789000D01*
X177540000Y-109789000D02*
X178199000Y-109789000D01*
X174847000Y-109749000D02*
X175460000Y-109749000D01*
X177540000Y-109749000D02*
X178153000Y-109749000D01*
X174895000Y-109709000D02*
X175460000Y-109709000D01*
X177540000Y-109709000D02*
X178105000Y-109709000D01*
X174946000Y-109669000D02*
X175460000Y-109669000D01*
X177540000Y-109669000D02*
X178054000Y-109669000D01*
X175000000Y-109629000D02*
X175460000Y-109629000D01*
X177540000Y-109629000D02*
X178000000Y-109629000D01*
X175057000Y-109589000D02*
X175460000Y-109589000D01*
X177540000Y-109589000D02*
X177943000Y-109589000D01*
X175117000Y-109549000D02*
X175460000Y-109549000D01*
X177540000Y-109549000D02*
X177883000Y-109549000D01*
X175181000Y-109509000D02*
X175460000Y-109509000D01*
X177540000Y-109509000D02*
X177819000Y-109509000D01*
X175249000Y-109469000D02*
X175460000Y-109469000D01*
X177540000Y-109469000D02*
X177751000Y-109469000D01*
X175322000Y-109429000D02*
X177678000Y-109429000D01*
X175402000Y-109389000D02*
X177598000Y-109389000D01*
X175489000Y-109349000D02*
X177511000Y-109349000D01*
X175585000Y-109309000D02*
X177415000Y-109309000D01*
X175695000Y-109269000D02*
X177305000Y-109269000D01*
X175823000Y-109229000D02*
X177177000Y-109229000D01*
X175982000Y-109189000D02*
X177018000Y-109189000D01*
X176216000Y-109149000D02*
X176784000Y-109149000D01*
X179120000Y-111750000D02*
G75*
G03*
X179120000Y-111750000I-2620000J0D01*
G01*
%TO.C,J1*%
X126670000Y-109170000D02*
X128000000Y-109170000D01*
X126670000Y-110500000D02*
X126670000Y-109170000D01*
X126670000Y-111770000D02*
X126670000Y-144850000D01*
X126670000Y-111770000D02*
X129330000Y-111770000D01*
X126670000Y-144850000D02*
X129330000Y-144850000D01*
X129330000Y-111770000D02*
X129330000Y-144850000D01*
%TD*%
M02*
