%TF.GenerationSoftware,KiCad,Pcbnew,7.0.7-7.0.7~ubuntu22.04.1*%
%TF.CreationDate,2023-09-11T12:59:47+09:00*%
%TF.ProjectId,3_2LCD,335f324c-4344-42e6-9b69-6361645f7063,rev?*%
%TF.SameCoordinates,Original*%
%TF.FileFunction,Legend,Bot*%
%TF.FilePolarity,Positive*%
%FSLAX46Y46*%
G04 Gerber Fmt 4.6, Leading zero omitted, Abs format (unit mm)*
G04 Created by KiCad (PCBNEW 7.0.7-7.0.7~ubuntu22.04.1) date 2023-09-11 12:59:47*
%MOMM*%
%LPD*%
G01*
G04 APERTURE LIST*
%ADD10C,0.150000*%
%ADD11C,0.120000*%
G04 APERTURE END LIST*
D10*
X133424874Y-109106729D02*
X132638683Y-109106729D01*
X132638683Y-109106729D02*
X133062017Y-109726005D01*
X133062017Y-109726005D02*
X132880588Y-109726005D01*
X132880588Y-109726005D02*
X132759636Y-109803415D01*
X132759636Y-109803415D02*
X132699160Y-109880824D01*
X132699160Y-109880824D02*
X132638683Y-110035643D01*
X132638683Y-110035643D02*
X132638683Y-110422691D01*
X132638683Y-110422691D02*
X132699160Y-110577510D01*
X132699160Y-110577510D02*
X132759636Y-110654920D01*
X132759636Y-110654920D02*
X132880588Y-110732329D01*
X132880588Y-110732329D02*
X133243445Y-110732329D01*
X133243445Y-110732329D02*
X133364398Y-110654920D01*
X133364398Y-110654920D02*
X133424874Y-110577510D01*
X132275826Y-109106729D02*
X131852493Y-110732329D01*
X131852493Y-110732329D02*
X131429159Y-109106729D01*
X131126779Y-109106729D02*
X130340588Y-109106729D01*
X130340588Y-109106729D02*
X130763922Y-109726005D01*
X130763922Y-109726005D02*
X130582493Y-109726005D01*
X130582493Y-109726005D02*
X130461541Y-109803415D01*
X130461541Y-109803415D02*
X130401065Y-109880824D01*
X130401065Y-109880824D02*
X130340588Y-110035643D01*
X130340588Y-110035643D02*
X130340588Y-110422691D01*
X130340588Y-110422691D02*
X130401065Y-110577510D01*
X130401065Y-110577510D02*
X130461541Y-110654920D01*
X130461541Y-110654920D02*
X130582493Y-110732329D01*
X130582493Y-110732329D02*
X130945350Y-110732329D01*
X130945350Y-110732329D02*
X131066303Y-110654920D01*
X131066303Y-110654920D02*
X131126779Y-110577510D01*
X133001540Y-111801355D02*
X133122493Y-111723945D01*
X133122493Y-111723945D02*
X133303921Y-111723945D01*
X133303921Y-111723945D02*
X133485350Y-111801355D01*
X133485350Y-111801355D02*
X133606302Y-111956174D01*
X133606302Y-111956174D02*
X133666779Y-112110993D01*
X133666779Y-112110993D02*
X133727255Y-112420631D01*
X133727255Y-112420631D02*
X133727255Y-112652859D01*
X133727255Y-112652859D02*
X133666779Y-112962497D01*
X133666779Y-112962497D02*
X133606302Y-113117316D01*
X133606302Y-113117316D02*
X133485350Y-113272136D01*
X133485350Y-113272136D02*
X133303921Y-113349545D01*
X133303921Y-113349545D02*
X133182969Y-113349545D01*
X133182969Y-113349545D02*
X133001540Y-113272136D01*
X133001540Y-113272136D02*
X132941064Y-113194726D01*
X132941064Y-113194726D02*
X132941064Y-112652859D01*
X132941064Y-112652859D02*
X133182969Y-112652859D01*
X132396779Y-113349545D02*
X132396779Y-111723945D01*
X132396779Y-111723945D02*
X131671064Y-113349545D01*
X131671064Y-113349545D02*
X131671064Y-111723945D01*
X131066303Y-113349545D02*
X131066303Y-111723945D01*
X131066303Y-111723945D02*
X130763922Y-111723945D01*
X130763922Y-111723945D02*
X130582493Y-111801355D01*
X130582493Y-111801355D02*
X130461541Y-111956174D01*
X130461541Y-111956174D02*
X130401064Y-112110993D01*
X130401064Y-112110993D02*
X130340588Y-112420631D01*
X130340588Y-112420631D02*
X130340588Y-112652859D01*
X130340588Y-112652859D02*
X130401064Y-112962497D01*
X130401064Y-112962497D02*
X130461541Y-113117316D01*
X130461541Y-113117316D02*
X130582493Y-113272136D01*
X130582493Y-113272136D02*
X130763922Y-113349545D01*
X130763922Y-113349545D02*
X131066303Y-113349545D01*
X131550112Y-115811942D02*
X131610588Y-115889352D01*
X131610588Y-115889352D02*
X131792017Y-115966761D01*
X131792017Y-115966761D02*
X131912969Y-115966761D01*
X131912969Y-115966761D02*
X132094398Y-115889352D01*
X132094398Y-115889352D02*
X132215350Y-115734532D01*
X132215350Y-115734532D02*
X132275827Y-115579713D01*
X132275827Y-115579713D02*
X132336303Y-115270075D01*
X132336303Y-115270075D02*
X132336303Y-115037847D01*
X132336303Y-115037847D02*
X132275827Y-114728209D01*
X132275827Y-114728209D02*
X132215350Y-114573390D01*
X132215350Y-114573390D02*
X132094398Y-114418571D01*
X132094398Y-114418571D02*
X131912969Y-114341161D01*
X131912969Y-114341161D02*
X131792017Y-114341161D01*
X131792017Y-114341161D02*
X131610588Y-114418571D01*
X131610588Y-114418571D02*
X131550112Y-114495980D01*
X131066303Y-115889352D02*
X130884874Y-115966761D01*
X130884874Y-115966761D02*
X130582493Y-115966761D01*
X130582493Y-115966761D02*
X130461541Y-115889352D01*
X130461541Y-115889352D02*
X130401065Y-115811942D01*
X130401065Y-115811942D02*
X130340588Y-115657123D01*
X130340588Y-115657123D02*
X130340588Y-115502304D01*
X130340588Y-115502304D02*
X130401065Y-115347485D01*
X130401065Y-115347485D02*
X130461541Y-115270075D01*
X130461541Y-115270075D02*
X130582493Y-115192666D01*
X130582493Y-115192666D02*
X130824398Y-115115256D01*
X130824398Y-115115256D02*
X130945350Y-115037847D01*
X130945350Y-115037847D02*
X131005827Y-114960437D01*
X131005827Y-114960437D02*
X131066303Y-114805618D01*
X131066303Y-114805618D02*
X131066303Y-114650799D01*
X131066303Y-114650799D02*
X131005827Y-114495980D01*
X131005827Y-114495980D02*
X130945350Y-114418571D01*
X130945350Y-114418571D02*
X130824398Y-114341161D01*
X130824398Y-114341161D02*
X130522017Y-114341161D01*
X130522017Y-114341161D02*
X130340588Y-114418571D01*
X134815827Y-118583977D02*
X135239161Y-117809882D01*
X135541542Y-118583977D02*
X135541542Y-116958377D01*
X135541542Y-116958377D02*
X135057732Y-116958377D01*
X135057732Y-116958377D02*
X134936780Y-117035787D01*
X134936780Y-117035787D02*
X134876303Y-117113196D01*
X134876303Y-117113196D02*
X134815827Y-117268015D01*
X134815827Y-117268015D02*
X134815827Y-117500244D01*
X134815827Y-117500244D02*
X134876303Y-117655063D01*
X134876303Y-117655063D02*
X134936780Y-117732472D01*
X134936780Y-117732472D02*
X135057732Y-117809882D01*
X135057732Y-117809882D02*
X135541542Y-117809882D01*
X134271542Y-117732472D02*
X133848208Y-117732472D01*
X133666780Y-118583977D02*
X134271542Y-118583977D01*
X134271542Y-118583977D02*
X134271542Y-116958377D01*
X134271542Y-116958377D02*
X133666780Y-116958377D01*
X133182970Y-118506568D02*
X133001541Y-118583977D01*
X133001541Y-118583977D02*
X132699160Y-118583977D01*
X132699160Y-118583977D02*
X132578208Y-118506568D01*
X132578208Y-118506568D02*
X132517732Y-118429158D01*
X132517732Y-118429158D02*
X132457255Y-118274339D01*
X132457255Y-118274339D02*
X132457255Y-118119520D01*
X132457255Y-118119520D02*
X132517732Y-117964701D01*
X132517732Y-117964701D02*
X132578208Y-117887291D01*
X132578208Y-117887291D02*
X132699160Y-117809882D01*
X132699160Y-117809882D02*
X132941065Y-117732472D01*
X132941065Y-117732472D02*
X133062017Y-117655063D01*
X133062017Y-117655063D02*
X133122494Y-117577653D01*
X133122494Y-117577653D02*
X133182970Y-117422834D01*
X133182970Y-117422834D02*
X133182970Y-117268015D01*
X133182970Y-117268015D02*
X133122494Y-117113196D01*
X133122494Y-117113196D02*
X133062017Y-117035787D01*
X133062017Y-117035787D02*
X132941065Y-116958377D01*
X132941065Y-116958377D02*
X132638684Y-116958377D01*
X132638684Y-116958377D02*
X132457255Y-117035787D01*
X131912970Y-117732472D02*
X131489636Y-117732472D01*
X131308208Y-118583977D02*
X131912970Y-118583977D01*
X131912970Y-118583977D02*
X131912970Y-116958377D01*
X131912970Y-116958377D02*
X131308208Y-116958377D01*
X130945350Y-116958377D02*
X130219636Y-116958377D01*
X130582493Y-118583977D02*
X130582493Y-116958377D01*
X136146303Y-121201193D02*
X136146303Y-119575593D01*
X136146303Y-119575593D02*
X135843922Y-119575593D01*
X135843922Y-119575593D02*
X135662493Y-119653003D01*
X135662493Y-119653003D02*
X135541541Y-119807822D01*
X135541541Y-119807822D02*
X135481064Y-119962641D01*
X135481064Y-119962641D02*
X135420588Y-120272279D01*
X135420588Y-120272279D02*
X135420588Y-120504507D01*
X135420588Y-120504507D02*
X135481064Y-120814145D01*
X135481064Y-120814145D02*
X135541541Y-120968964D01*
X135541541Y-120968964D02*
X135662493Y-121123784D01*
X135662493Y-121123784D02*
X135843922Y-121201193D01*
X135843922Y-121201193D02*
X136146303Y-121201193D01*
X134150588Y-121046374D02*
X134211064Y-121123784D01*
X134211064Y-121123784D02*
X134392493Y-121201193D01*
X134392493Y-121201193D02*
X134513445Y-121201193D01*
X134513445Y-121201193D02*
X134694874Y-121123784D01*
X134694874Y-121123784D02*
X134815826Y-120968964D01*
X134815826Y-120968964D02*
X134876303Y-120814145D01*
X134876303Y-120814145D02*
X134936779Y-120504507D01*
X134936779Y-120504507D02*
X134936779Y-120272279D01*
X134936779Y-120272279D02*
X134876303Y-119962641D01*
X134876303Y-119962641D02*
X134815826Y-119807822D01*
X134815826Y-119807822D02*
X134694874Y-119653003D01*
X134694874Y-119653003D02*
X134513445Y-119575593D01*
X134513445Y-119575593D02*
X134392493Y-119575593D01*
X134392493Y-119575593D02*
X134211064Y-119653003D01*
X134211064Y-119653003D02*
X134150588Y-119730412D01*
X132699160Y-119498184D02*
X133787731Y-121588241D01*
X131550112Y-121201193D02*
X131973446Y-120427098D01*
X132275827Y-121201193D02*
X132275827Y-119575593D01*
X132275827Y-119575593D02*
X131792017Y-119575593D01*
X131792017Y-119575593D02*
X131671065Y-119653003D01*
X131671065Y-119653003D02*
X131610588Y-119730412D01*
X131610588Y-119730412D02*
X131550112Y-119885231D01*
X131550112Y-119885231D02*
X131550112Y-120117460D01*
X131550112Y-120117460D02*
X131610588Y-120272279D01*
X131610588Y-120272279D02*
X131671065Y-120349688D01*
X131671065Y-120349688D02*
X131792017Y-120427098D01*
X131792017Y-120427098D02*
X132275827Y-120427098D01*
X131066303Y-121123784D02*
X130884874Y-121201193D01*
X130884874Y-121201193D02*
X130582493Y-121201193D01*
X130582493Y-121201193D02*
X130461541Y-121123784D01*
X130461541Y-121123784D02*
X130401065Y-121046374D01*
X130401065Y-121046374D02*
X130340588Y-120891555D01*
X130340588Y-120891555D02*
X130340588Y-120736736D01*
X130340588Y-120736736D02*
X130401065Y-120581917D01*
X130401065Y-120581917D02*
X130461541Y-120504507D01*
X130461541Y-120504507D02*
X130582493Y-120427098D01*
X130582493Y-120427098D02*
X130824398Y-120349688D01*
X130824398Y-120349688D02*
X130945350Y-120272279D01*
X130945350Y-120272279D02*
X131005827Y-120194869D01*
X131005827Y-120194869D02*
X131066303Y-120040050D01*
X131066303Y-120040050D02*
X131066303Y-119885231D01*
X131066303Y-119885231D02*
X131005827Y-119730412D01*
X131005827Y-119730412D02*
X130945350Y-119653003D01*
X130945350Y-119653003D02*
X130824398Y-119575593D01*
X130824398Y-119575593D02*
X130522017Y-119575593D01*
X130522017Y-119575593D02*
X130340588Y-119653003D01*
X139230590Y-123741000D02*
X139049161Y-123818409D01*
X139049161Y-123818409D02*
X138746780Y-123818409D01*
X138746780Y-123818409D02*
X138625828Y-123741000D01*
X138625828Y-123741000D02*
X138565352Y-123663590D01*
X138565352Y-123663590D02*
X138504875Y-123508771D01*
X138504875Y-123508771D02*
X138504875Y-123353952D01*
X138504875Y-123353952D02*
X138565352Y-123199133D01*
X138565352Y-123199133D02*
X138625828Y-123121723D01*
X138625828Y-123121723D02*
X138746780Y-123044314D01*
X138746780Y-123044314D02*
X138988685Y-122966904D01*
X138988685Y-122966904D02*
X139109637Y-122889495D01*
X139109637Y-122889495D02*
X139170114Y-122812085D01*
X139170114Y-122812085D02*
X139230590Y-122657266D01*
X139230590Y-122657266D02*
X139230590Y-122502447D01*
X139230590Y-122502447D02*
X139170114Y-122347628D01*
X139170114Y-122347628D02*
X139109637Y-122270219D01*
X139109637Y-122270219D02*
X138988685Y-122192809D01*
X138988685Y-122192809D02*
X138686304Y-122192809D01*
X138686304Y-122192809D02*
X138504875Y-122270219D01*
X137960590Y-123818409D02*
X137960590Y-122192809D01*
X137960590Y-122192809D02*
X137658209Y-122192809D01*
X137658209Y-122192809D02*
X137476780Y-122270219D01*
X137476780Y-122270219D02*
X137355828Y-122425038D01*
X137355828Y-122425038D02*
X137295351Y-122579857D01*
X137295351Y-122579857D02*
X137234875Y-122889495D01*
X137234875Y-122889495D02*
X137234875Y-123121723D01*
X137234875Y-123121723D02*
X137295351Y-123431361D01*
X137295351Y-123431361D02*
X137355828Y-123586180D01*
X137355828Y-123586180D02*
X137476780Y-123741000D01*
X137476780Y-123741000D02*
X137658209Y-123818409D01*
X137658209Y-123818409D02*
X137960590Y-123818409D01*
X136690590Y-123818409D02*
X136690590Y-122192809D01*
X135722970Y-124437685D02*
X135783447Y-124360276D01*
X135783447Y-124360276D02*
X135904399Y-124128047D01*
X135904399Y-124128047D02*
X135964875Y-123973228D01*
X135964875Y-123973228D02*
X136025351Y-123741000D01*
X136025351Y-123741000D02*
X136085828Y-123353952D01*
X136085828Y-123353952D02*
X136085828Y-123044314D01*
X136085828Y-123044314D02*
X136025351Y-122657266D01*
X136025351Y-122657266D02*
X135964875Y-122425038D01*
X135964875Y-122425038D02*
X135904399Y-122270219D01*
X135904399Y-122270219D02*
X135783447Y-122037990D01*
X135783447Y-122037990D02*
X135722970Y-121960580D01*
X135239161Y-123818409D02*
X135239161Y-122192809D01*
X135239161Y-122192809D02*
X134815827Y-123353952D01*
X134815827Y-123353952D02*
X134392494Y-122192809D01*
X134392494Y-122192809D02*
X134392494Y-123818409D01*
X133545827Y-122192809D02*
X133303922Y-122192809D01*
X133303922Y-122192809D02*
X133182970Y-122270219D01*
X133182970Y-122270219D02*
X133062017Y-122425038D01*
X133062017Y-122425038D02*
X133001541Y-122734676D01*
X133001541Y-122734676D02*
X133001541Y-123276542D01*
X133001541Y-123276542D02*
X133062017Y-123586180D01*
X133062017Y-123586180D02*
X133182970Y-123741000D01*
X133182970Y-123741000D02*
X133303922Y-123818409D01*
X133303922Y-123818409D02*
X133545827Y-123818409D01*
X133545827Y-123818409D02*
X133666779Y-123741000D01*
X133666779Y-123741000D02*
X133787732Y-123586180D01*
X133787732Y-123586180D02*
X133848208Y-123276542D01*
X133848208Y-123276542D02*
X133848208Y-122734676D01*
X133848208Y-122734676D02*
X133787732Y-122425038D01*
X133787732Y-122425038D02*
X133666779Y-122270219D01*
X133666779Y-122270219D02*
X133545827Y-122192809D01*
X132517732Y-123741000D02*
X132336303Y-123818409D01*
X132336303Y-123818409D02*
X132033922Y-123818409D01*
X132033922Y-123818409D02*
X131912970Y-123741000D01*
X131912970Y-123741000D02*
X131852494Y-123663590D01*
X131852494Y-123663590D02*
X131792017Y-123508771D01*
X131792017Y-123508771D02*
X131792017Y-123353952D01*
X131792017Y-123353952D02*
X131852494Y-123199133D01*
X131852494Y-123199133D02*
X131912970Y-123121723D01*
X131912970Y-123121723D02*
X132033922Y-123044314D01*
X132033922Y-123044314D02*
X132275827Y-122966904D01*
X132275827Y-122966904D02*
X132396779Y-122889495D01*
X132396779Y-122889495D02*
X132457256Y-122812085D01*
X132457256Y-122812085D02*
X132517732Y-122657266D01*
X132517732Y-122657266D02*
X132517732Y-122502447D01*
X132517732Y-122502447D02*
X132457256Y-122347628D01*
X132457256Y-122347628D02*
X132396779Y-122270219D01*
X132396779Y-122270219D02*
X132275827Y-122192809D01*
X132275827Y-122192809D02*
X131973446Y-122192809D01*
X131973446Y-122192809D02*
X131792017Y-122270219D01*
X131247732Y-123818409D02*
X131247732Y-122192809D01*
X130763922Y-124437685D02*
X130703446Y-124360276D01*
X130703446Y-124360276D02*
X130582493Y-124128047D01*
X130582493Y-124128047D02*
X130522017Y-123973228D01*
X130522017Y-123973228D02*
X130461541Y-123741000D01*
X130461541Y-123741000D02*
X130401065Y-123353952D01*
X130401065Y-123353952D02*
X130401065Y-123044314D01*
X130401065Y-123044314D02*
X130461541Y-122657266D01*
X130461541Y-122657266D02*
X130522017Y-122425038D01*
X130522017Y-122425038D02*
X130582493Y-122270219D01*
X130582493Y-122270219D02*
X130703446Y-122037990D01*
X130703446Y-122037990D02*
X130763922Y-121960580D01*
X133606303Y-126358216D02*
X133424874Y-126435625D01*
X133424874Y-126435625D02*
X133122493Y-126435625D01*
X133122493Y-126435625D02*
X133001541Y-126358216D01*
X133001541Y-126358216D02*
X132941065Y-126280806D01*
X132941065Y-126280806D02*
X132880588Y-126125987D01*
X132880588Y-126125987D02*
X132880588Y-125971168D01*
X132880588Y-125971168D02*
X132941065Y-125816349D01*
X132941065Y-125816349D02*
X133001541Y-125738939D01*
X133001541Y-125738939D02*
X133122493Y-125661530D01*
X133122493Y-125661530D02*
X133364398Y-125584120D01*
X133364398Y-125584120D02*
X133485350Y-125506711D01*
X133485350Y-125506711D02*
X133545827Y-125429301D01*
X133545827Y-125429301D02*
X133606303Y-125274482D01*
X133606303Y-125274482D02*
X133606303Y-125119663D01*
X133606303Y-125119663D02*
X133545827Y-124964844D01*
X133545827Y-124964844D02*
X133485350Y-124887435D01*
X133485350Y-124887435D02*
X133364398Y-124810025D01*
X133364398Y-124810025D02*
X133062017Y-124810025D01*
X133062017Y-124810025D02*
X132880588Y-124887435D01*
X131610588Y-126280806D02*
X131671064Y-126358216D01*
X131671064Y-126358216D02*
X131852493Y-126435625D01*
X131852493Y-126435625D02*
X131973445Y-126435625D01*
X131973445Y-126435625D02*
X132154874Y-126358216D01*
X132154874Y-126358216D02*
X132275826Y-126203396D01*
X132275826Y-126203396D02*
X132336303Y-126048577D01*
X132336303Y-126048577D02*
X132396779Y-125738939D01*
X132396779Y-125738939D02*
X132396779Y-125506711D01*
X132396779Y-125506711D02*
X132336303Y-125197073D01*
X132336303Y-125197073D02*
X132275826Y-125042254D01*
X132275826Y-125042254D02*
X132154874Y-124887435D01*
X132154874Y-124887435D02*
X131973445Y-124810025D01*
X131973445Y-124810025D02*
X131852493Y-124810025D01*
X131852493Y-124810025D02*
X131671064Y-124887435D01*
X131671064Y-124887435D02*
X131610588Y-124964844D01*
X131066303Y-126435625D02*
X131066303Y-124810025D01*
X130340588Y-126435625D02*
X130884874Y-125506711D01*
X130340588Y-124810025D02*
X131066303Y-125738939D01*
X132638684Y-129052841D02*
X133243446Y-129052841D01*
X133243446Y-129052841D02*
X133243446Y-127427241D01*
X132215351Y-128201336D02*
X131792017Y-128201336D01*
X131610589Y-129052841D02*
X132215351Y-129052841D01*
X132215351Y-129052841D02*
X132215351Y-127427241D01*
X132215351Y-127427241D02*
X131610589Y-127427241D01*
X131066303Y-129052841D02*
X131066303Y-127427241D01*
X131066303Y-127427241D02*
X130763922Y-127427241D01*
X130763922Y-127427241D02*
X130582493Y-127504651D01*
X130582493Y-127504651D02*
X130461541Y-127659470D01*
X130461541Y-127659470D02*
X130401064Y-127814289D01*
X130401064Y-127814289D02*
X130340588Y-128123927D01*
X130340588Y-128123927D02*
X130340588Y-128356155D01*
X130340588Y-128356155D02*
X130401064Y-128665793D01*
X130401064Y-128665793D02*
X130461541Y-128820612D01*
X130461541Y-128820612D02*
X130582493Y-128975432D01*
X130582493Y-128975432D02*
X130763922Y-129052841D01*
X130763922Y-129052841D02*
X131066303Y-129052841D01*
X139956304Y-131592648D02*
X139774875Y-131670057D01*
X139774875Y-131670057D02*
X139472494Y-131670057D01*
X139472494Y-131670057D02*
X139351542Y-131592648D01*
X139351542Y-131592648D02*
X139291066Y-131515238D01*
X139291066Y-131515238D02*
X139230589Y-131360419D01*
X139230589Y-131360419D02*
X139230589Y-131205600D01*
X139230589Y-131205600D02*
X139291066Y-131050781D01*
X139291066Y-131050781D02*
X139351542Y-130973371D01*
X139351542Y-130973371D02*
X139472494Y-130895962D01*
X139472494Y-130895962D02*
X139714399Y-130818552D01*
X139714399Y-130818552D02*
X139835351Y-130741143D01*
X139835351Y-130741143D02*
X139895828Y-130663733D01*
X139895828Y-130663733D02*
X139956304Y-130508914D01*
X139956304Y-130508914D02*
X139956304Y-130354095D01*
X139956304Y-130354095D02*
X139895828Y-130199276D01*
X139895828Y-130199276D02*
X139835351Y-130121867D01*
X139835351Y-130121867D02*
X139714399Y-130044457D01*
X139714399Y-130044457D02*
X139412018Y-130044457D01*
X139412018Y-130044457D02*
X139230589Y-130121867D01*
X138686304Y-131670057D02*
X138686304Y-130044457D01*
X138686304Y-130044457D02*
X138383923Y-130044457D01*
X138383923Y-130044457D02*
X138202494Y-130121867D01*
X138202494Y-130121867D02*
X138081542Y-130276686D01*
X138081542Y-130276686D02*
X138021065Y-130431505D01*
X138021065Y-130431505D02*
X137960589Y-130741143D01*
X137960589Y-130741143D02*
X137960589Y-130973371D01*
X137960589Y-130973371D02*
X138021065Y-131283009D01*
X138021065Y-131283009D02*
X138081542Y-131437828D01*
X138081542Y-131437828D02*
X138202494Y-131592648D01*
X138202494Y-131592648D02*
X138383923Y-131670057D01*
X138383923Y-131670057D02*
X138686304Y-131670057D01*
X137174399Y-130044457D02*
X136932494Y-130044457D01*
X136932494Y-130044457D02*
X136811542Y-130121867D01*
X136811542Y-130121867D02*
X136690589Y-130276686D01*
X136690589Y-130276686D02*
X136630113Y-130586324D01*
X136630113Y-130586324D02*
X136630113Y-131128190D01*
X136630113Y-131128190D02*
X136690589Y-131437828D01*
X136690589Y-131437828D02*
X136811542Y-131592648D01*
X136811542Y-131592648D02*
X136932494Y-131670057D01*
X136932494Y-131670057D02*
X137174399Y-131670057D01*
X137174399Y-131670057D02*
X137295351Y-131592648D01*
X137295351Y-131592648D02*
X137416304Y-131437828D01*
X137416304Y-131437828D02*
X137476780Y-131128190D01*
X137476780Y-131128190D02*
X137476780Y-130586324D01*
X137476780Y-130586324D02*
X137416304Y-130276686D01*
X137416304Y-130276686D02*
X137295351Y-130121867D01*
X137295351Y-130121867D02*
X137174399Y-130044457D01*
X135722970Y-132289333D02*
X135783447Y-132211924D01*
X135783447Y-132211924D02*
X135904399Y-131979695D01*
X135904399Y-131979695D02*
X135964875Y-131824876D01*
X135964875Y-131824876D02*
X136025351Y-131592648D01*
X136025351Y-131592648D02*
X136085828Y-131205600D01*
X136085828Y-131205600D02*
X136085828Y-130895962D01*
X136085828Y-130895962D02*
X136025351Y-130508914D01*
X136025351Y-130508914D02*
X135964875Y-130276686D01*
X135964875Y-130276686D02*
X135904399Y-130121867D01*
X135904399Y-130121867D02*
X135783447Y-129889638D01*
X135783447Y-129889638D02*
X135722970Y-129812228D01*
X135239161Y-131670057D02*
X135239161Y-130044457D01*
X135239161Y-130044457D02*
X134815827Y-131205600D01*
X134815827Y-131205600D02*
X134392494Y-130044457D01*
X134392494Y-130044457D02*
X134392494Y-131670057D01*
X133787732Y-131670057D02*
X133787732Y-130044457D01*
X133243446Y-131592648D02*
X133062017Y-131670057D01*
X133062017Y-131670057D02*
X132759636Y-131670057D01*
X132759636Y-131670057D02*
X132638684Y-131592648D01*
X132638684Y-131592648D02*
X132578208Y-131515238D01*
X132578208Y-131515238D02*
X132517731Y-131360419D01*
X132517731Y-131360419D02*
X132517731Y-131205600D01*
X132517731Y-131205600D02*
X132578208Y-131050781D01*
X132578208Y-131050781D02*
X132638684Y-130973371D01*
X132638684Y-130973371D02*
X132759636Y-130895962D01*
X132759636Y-130895962D02*
X133001541Y-130818552D01*
X133001541Y-130818552D02*
X133122493Y-130741143D01*
X133122493Y-130741143D02*
X133182970Y-130663733D01*
X133182970Y-130663733D02*
X133243446Y-130508914D01*
X133243446Y-130508914D02*
X133243446Y-130354095D01*
X133243446Y-130354095D02*
X133182970Y-130199276D01*
X133182970Y-130199276D02*
X133122493Y-130121867D01*
X133122493Y-130121867D02*
X133001541Y-130044457D01*
X133001541Y-130044457D02*
X132699160Y-130044457D01*
X132699160Y-130044457D02*
X132517731Y-130121867D01*
X131731541Y-130044457D02*
X131489636Y-130044457D01*
X131489636Y-130044457D02*
X131368684Y-130121867D01*
X131368684Y-130121867D02*
X131247731Y-130276686D01*
X131247731Y-130276686D02*
X131187255Y-130586324D01*
X131187255Y-130586324D02*
X131187255Y-131128190D01*
X131187255Y-131128190D02*
X131247731Y-131437828D01*
X131247731Y-131437828D02*
X131368684Y-131592648D01*
X131368684Y-131592648D02*
X131489636Y-131670057D01*
X131489636Y-131670057D02*
X131731541Y-131670057D01*
X131731541Y-131670057D02*
X131852493Y-131592648D01*
X131852493Y-131592648D02*
X131973446Y-131437828D01*
X131973446Y-131437828D02*
X132033922Y-131128190D01*
X132033922Y-131128190D02*
X132033922Y-130586324D01*
X132033922Y-130586324D02*
X131973446Y-130276686D01*
X131973446Y-130276686D02*
X131852493Y-130121867D01*
X131852493Y-130121867D02*
X131731541Y-130044457D01*
X130763922Y-132289333D02*
X130703446Y-132211924D01*
X130703446Y-132211924D02*
X130582493Y-131979695D01*
X130582493Y-131979695D02*
X130522017Y-131824876D01*
X130522017Y-131824876D02*
X130461541Y-131592648D01*
X130461541Y-131592648D02*
X130401065Y-131205600D01*
X130401065Y-131205600D02*
X130401065Y-130895962D01*
X130401065Y-130895962D02*
X130461541Y-130508914D01*
X130461541Y-130508914D02*
X130522017Y-130276686D01*
X130522017Y-130276686D02*
X130582493Y-130121867D01*
X130582493Y-130121867D02*
X130703446Y-129889638D01*
X130703446Y-129889638D02*
X130763922Y-129812228D01*
X132396779Y-134287273D02*
X132396779Y-132661673D01*
X132396779Y-132661673D02*
X131671064Y-134287273D01*
X131671064Y-134287273D02*
X131671064Y-132661673D01*
X130340588Y-134132454D02*
X130401064Y-134209864D01*
X130401064Y-134209864D02*
X130582493Y-134287273D01*
X130582493Y-134287273D02*
X130703445Y-134287273D01*
X130703445Y-134287273D02*
X130884874Y-134209864D01*
X130884874Y-134209864D02*
X131005826Y-134055044D01*
X131005826Y-134055044D02*
X131066303Y-133900225D01*
X131066303Y-133900225D02*
X131126779Y-133590587D01*
X131126779Y-133590587D02*
X131126779Y-133358359D01*
X131126779Y-133358359D02*
X131066303Y-133048721D01*
X131066303Y-133048721D02*
X131005826Y-132893902D01*
X131005826Y-132893902D02*
X130884874Y-132739083D01*
X130884874Y-132739083D02*
X130703445Y-132661673D01*
X130703445Y-132661673D02*
X130582493Y-132661673D01*
X130582493Y-132661673D02*
X130401064Y-132739083D01*
X130401064Y-132739083D02*
X130340588Y-132816492D01*
X132396779Y-136904489D02*
X132396779Y-135278889D01*
X132396779Y-135278889D02*
X131671064Y-136904489D01*
X131671064Y-136904489D02*
X131671064Y-135278889D01*
X130340588Y-136749670D02*
X130401064Y-136827080D01*
X130401064Y-136827080D02*
X130582493Y-136904489D01*
X130582493Y-136904489D02*
X130703445Y-136904489D01*
X130703445Y-136904489D02*
X130884874Y-136827080D01*
X130884874Y-136827080D02*
X131005826Y-136672260D01*
X131005826Y-136672260D02*
X131066303Y-136517441D01*
X131066303Y-136517441D02*
X131126779Y-136207803D01*
X131126779Y-136207803D02*
X131126779Y-135975575D01*
X131126779Y-135975575D02*
X131066303Y-135665937D01*
X131066303Y-135665937D02*
X131005826Y-135511118D01*
X131005826Y-135511118D02*
X130884874Y-135356299D01*
X130884874Y-135356299D02*
X130703445Y-135278889D01*
X130703445Y-135278889D02*
X130582493Y-135278889D01*
X130582493Y-135278889D02*
X130401064Y-135356299D01*
X130401064Y-135356299D02*
X130340588Y-135433708D01*
X132396779Y-139521705D02*
X132396779Y-137896105D01*
X132396779Y-137896105D02*
X131671064Y-139521705D01*
X131671064Y-139521705D02*
X131671064Y-137896105D01*
X130340588Y-139366886D02*
X130401064Y-139444296D01*
X130401064Y-139444296D02*
X130582493Y-139521705D01*
X130582493Y-139521705D02*
X130703445Y-139521705D01*
X130703445Y-139521705D02*
X130884874Y-139444296D01*
X130884874Y-139444296D02*
X131005826Y-139289476D01*
X131005826Y-139289476D02*
X131066303Y-139134657D01*
X131066303Y-139134657D02*
X131126779Y-138825019D01*
X131126779Y-138825019D02*
X131126779Y-138592791D01*
X131126779Y-138592791D02*
X131066303Y-138283153D01*
X131066303Y-138283153D02*
X131005826Y-138128334D01*
X131005826Y-138128334D02*
X130884874Y-137973515D01*
X130884874Y-137973515D02*
X130703445Y-137896105D01*
X130703445Y-137896105D02*
X130582493Y-137896105D01*
X130582493Y-137896105D02*
X130401064Y-137973515D01*
X130401064Y-137973515D02*
X130340588Y-138050924D01*
X132396779Y-142138921D02*
X132396779Y-140513321D01*
X132396779Y-140513321D02*
X131671064Y-142138921D01*
X131671064Y-142138921D02*
X131671064Y-140513321D01*
X130340588Y-141984102D02*
X130401064Y-142061512D01*
X130401064Y-142061512D02*
X130582493Y-142138921D01*
X130582493Y-142138921D02*
X130703445Y-142138921D01*
X130703445Y-142138921D02*
X130884874Y-142061512D01*
X130884874Y-142061512D02*
X131005826Y-141906692D01*
X131005826Y-141906692D02*
X131066303Y-141751873D01*
X131066303Y-141751873D02*
X131126779Y-141442235D01*
X131126779Y-141442235D02*
X131126779Y-141210007D01*
X131126779Y-141210007D02*
X131066303Y-140900369D01*
X131066303Y-140900369D02*
X131005826Y-140745550D01*
X131005826Y-140745550D02*
X130884874Y-140590731D01*
X130884874Y-140590731D02*
X130703445Y-140513321D01*
X130703445Y-140513321D02*
X130582493Y-140513321D01*
X130582493Y-140513321D02*
X130401064Y-140590731D01*
X130401064Y-140590731D02*
X130340588Y-140668140D01*
X132396779Y-144756137D02*
X132396779Y-143130537D01*
X132396779Y-143130537D02*
X131671064Y-144756137D01*
X131671064Y-144756137D02*
X131671064Y-143130537D01*
X130340588Y-144601318D02*
X130401064Y-144678728D01*
X130401064Y-144678728D02*
X130582493Y-144756137D01*
X130582493Y-144756137D02*
X130703445Y-144756137D01*
X130703445Y-144756137D02*
X130884874Y-144678728D01*
X130884874Y-144678728D02*
X131005826Y-144523908D01*
X131005826Y-144523908D02*
X131066303Y-144369089D01*
X131066303Y-144369089D02*
X131126779Y-144059451D01*
X131126779Y-144059451D02*
X131126779Y-143827223D01*
X131126779Y-143827223D02*
X131066303Y-143517585D01*
X131066303Y-143517585D02*
X131005826Y-143362766D01*
X131005826Y-143362766D02*
X130884874Y-143207947D01*
X130884874Y-143207947D02*
X130703445Y-143130537D01*
X130703445Y-143130537D02*
X130582493Y-143130537D01*
X130582493Y-143130537D02*
X130401064Y-143207947D01*
X130401064Y-143207947D02*
X130340588Y-143285356D01*
X181966666Y-116859580D02*
X182014285Y-116907200D01*
X182014285Y-116907200D02*
X182157142Y-116954819D01*
X182157142Y-116954819D02*
X182252380Y-116954819D01*
X182252380Y-116954819D02*
X182395237Y-116907200D01*
X182395237Y-116907200D02*
X182490475Y-116811961D01*
X182490475Y-116811961D02*
X182538094Y-116716723D01*
X182538094Y-116716723D02*
X182585713Y-116526247D01*
X182585713Y-116526247D02*
X182585713Y-116383390D01*
X182585713Y-116383390D02*
X182538094Y-116192914D01*
X182538094Y-116192914D02*
X182490475Y-116097676D01*
X182490475Y-116097676D02*
X182395237Y-116002438D01*
X182395237Y-116002438D02*
X182252380Y-115954819D01*
X182252380Y-115954819D02*
X182157142Y-115954819D01*
X182157142Y-115954819D02*
X182014285Y-116002438D01*
X182014285Y-116002438D02*
X181966666Y-116050057D01*
X181014285Y-116954819D02*
X181585713Y-116954819D01*
X181299999Y-116954819D02*
X181299999Y-115954819D01*
X181299999Y-115954819D02*
X181395237Y-116097676D01*
X181395237Y-116097676D02*
X181490475Y-116192914D01*
X181490475Y-116192914D02*
X181585713Y-116240533D01*
X180414285Y-116454819D02*
X180319047Y-116454819D01*
X180319047Y-116454819D02*
X180223809Y-116502438D01*
X180223809Y-116502438D02*
X180176190Y-116550057D01*
X180176190Y-116550057D02*
X180128571Y-116645295D01*
X180128571Y-116645295D02*
X180080952Y-116835771D01*
X180080952Y-116835771D02*
X180080952Y-117073866D01*
X180080952Y-117073866D02*
X180128571Y-117264342D01*
X180128571Y-117264342D02*
X180176190Y-117359580D01*
X180176190Y-117359580D02*
X180223809Y-117407200D01*
X180223809Y-117407200D02*
X180319047Y-117454819D01*
X180319047Y-117454819D02*
X180414285Y-117454819D01*
X180414285Y-117454819D02*
X180509523Y-117407200D01*
X180509523Y-117407200D02*
X180557142Y-117359580D01*
X180557142Y-117359580D02*
X180604761Y-117264342D01*
X180604761Y-117264342D02*
X180652380Y-117073866D01*
X180652380Y-117073866D02*
X180652380Y-116835771D01*
X180652380Y-116835771D02*
X180604761Y-116645295D01*
X180604761Y-116645295D02*
X180557142Y-116550057D01*
X180557142Y-116550057D02*
X180509523Y-116502438D01*
X180509523Y-116502438D02*
X180414285Y-116454819D01*
X179652380Y-117359580D02*
X179604761Y-117407200D01*
X179604761Y-117407200D02*
X179652380Y-117454819D01*
X179652380Y-117454819D02*
X179699999Y-117407200D01*
X179699999Y-117407200D02*
X179652380Y-117359580D01*
X179652380Y-117359580D02*
X179652380Y-117454819D01*
X178652381Y-117454819D02*
X179223809Y-117454819D01*
X178938095Y-117454819D02*
X178938095Y-116454819D01*
X178938095Y-116454819D02*
X179033333Y-116597676D01*
X179033333Y-116597676D02*
X179128571Y-116692914D01*
X179128571Y-116692914D02*
X179223809Y-116740533D01*
X177795238Y-116788152D02*
X177795238Y-117454819D01*
X178223809Y-116788152D02*
X178223809Y-117311961D01*
X178223809Y-117311961D02*
X178176190Y-117407200D01*
X178176190Y-117407200D02*
X178080952Y-117454819D01*
X178080952Y-117454819D02*
X177938095Y-117454819D01*
X177938095Y-117454819D02*
X177842857Y-117407200D01*
X177842857Y-117407200D02*
X177795238Y-117359580D01*
X174166666Y-115859580D02*
X174214285Y-115907200D01*
X174214285Y-115907200D02*
X174357142Y-115954819D01*
X174357142Y-115954819D02*
X174452380Y-115954819D01*
X174452380Y-115954819D02*
X174595237Y-115907200D01*
X174595237Y-115907200D02*
X174690475Y-115811961D01*
X174690475Y-115811961D02*
X174738094Y-115716723D01*
X174738094Y-115716723D02*
X174785713Y-115526247D01*
X174785713Y-115526247D02*
X174785713Y-115383390D01*
X174785713Y-115383390D02*
X174738094Y-115192914D01*
X174738094Y-115192914D02*
X174690475Y-115097676D01*
X174690475Y-115097676D02*
X174595237Y-115002438D01*
X174595237Y-115002438D02*
X174452380Y-114954819D01*
X174452380Y-114954819D02*
X174357142Y-114954819D01*
X174357142Y-114954819D02*
X174214285Y-115002438D01*
X174214285Y-115002438D02*
X174166666Y-115050057D01*
X173785713Y-115050057D02*
X173738094Y-115002438D01*
X173738094Y-115002438D02*
X173642856Y-114954819D01*
X173642856Y-114954819D02*
X173404761Y-114954819D01*
X173404761Y-114954819D02*
X173309523Y-115002438D01*
X173309523Y-115002438D02*
X173261904Y-115050057D01*
X173261904Y-115050057D02*
X173214285Y-115145295D01*
X173214285Y-115145295D02*
X173214285Y-115240533D01*
X173214285Y-115240533D02*
X173261904Y-115383390D01*
X173261904Y-115383390D02*
X173833332Y-115954819D01*
X173833332Y-115954819D02*
X173214285Y-115954819D01*
X179242857Y-115854819D02*
X179814285Y-115854819D01*
X179528571Y-115854819D02*
X179528571Y-114854819D01*
X179528571Y-114854819D02*
X179623809Y-114997676D01*
X179623809Y-114997676D02*
X179719047Y-115092914D01*
X179719047Y-115092914D02*
X179814285Y-115140533D01*
X178623809Y-114854819D02*
X178528571Y-114854819D01*
X178528571Y-114854819D02*
X178433333Y-114902438D01*
X178433333Y-114902438D02*
X178385714Y-114950057D01*
X178385714Y-114950057D02*
X178338095Y-115045295D01*
X178338095Y-115045295D02*
X178290476Y-115235771D01*
X178290476Y-115235771D02*
X178290476Y-115473866D01*
X178290476Y-115473866D02*
X178338095Y-115664342D01*
X178338095Y-115664342D02*
X178385714Y-115759580D01*
X178385714Y-115759580D02*
X178433333Y-115807200D01*
X178433333Y-115807200D02*
X178528571Y-115854819D01*
X178528571Y-115854819D02*
X178623809Y-115854819D01*
X178623809Y-115854819D02*
X178719047Y-115807200D01*
X178719047Y-115807200D02*
X178766666Y-115759580D01*
X178766666Y-115759580D02*
X178814285Y-115664342D01*
X178814285Y-115664342D02*
X178861904Y-115473866D01*
X178861904Y-115473866D02*
X178861904Y-115235771D01*
X178861904Y-115235771D02*
X178814285Y-115045295D01*
X178814285Y-115045295D02*
X178766666Y-114950057D01*
X178766666Y-114950057D02*
X178719047Y-114902438D01*
X178719047Y-114902438D02*
X178623809Y-114854819D01*
X177433333Y-115188152D02*
X177433333Y-115854819D01*
X177861904Y-115188152D02*
X177861904Y-115711961D01*
X177861904Y-115711961D02*
X177814285Y-115807200D01*
X177814285Y-115807200D02*
X177719047Y-115854819D01*
X177719047Y-115854819D02*
X177576190Y-115854819D01*
X177576190Y-115854819D02*
X177480952Y-115807200D01*
X177480952Y-115807200D02*
X177433333Y-115759580D01*
X185666666Y-130554819D02*
X185999999Y-130078628D01*
X186238094Y-130554819D02*
X186238094Y-129554819D01*
X186238094Y-129554819D02*
X185857142Y-129554819D01*
X185857142Y-129554819D02*
X185761904Y-129602438D01*
X185761904Y-129602438D02*
X185714285Y-129650057D01*
X185714285Y-129650057D02*
X185666666Y-129745295D01*
X185666666Y-129745295D02*
X185666666Y-129888152D01*
X185666666Y-129888152D02*
X185714285Y-129983390D01*
X185714285Y-129983390D02*
X185761904Y-130031009D01*
X185761904Y-130031009D02*
X185857142Y-130078628D01*
X185857142Y-130078628D02*
X186238094Y-130078628D01*
X184714285Y-130554819D02*
X185285713Y-130554819D01*
X184999999Y-130554819D02*
X184999999Y-129554819D01*
X184999999Y-129554819D02*
X185095237Y-129697676D01*
X185095237Y-129697676D02*
X185190475Y-129792914D01*
X185190475Y-129792914D02*
X185285713Y-129840533D01*
X181166666Y-132454819D02*
X181499999Y-131978628D01*
X181738094Y-132454819D02*
X181738094Y-131454819D01*
X181738094Y-131454819D02*
X181357142Y-131454819D01*
X181357142Y-131454819D02*
X181261904Y-131502438D01*
X181261904Y-131502438D02*
X181214285Y-131550057D01*
X181214285Y-131550057D02*
X181166666Y-131645295D01*
X181166666Y-131645295D02*
X181166666Y-131788152D01*
X181166666Y-131788152D02*
X181214285Y-131883390D01*
X181214285Y-131883390D02*
X181261904Y-131931009D01*
X181261904Y-131931009D02*
X181357142Y-131978628D01*
X181357142Y-131978628D02*
X181738094Y-131978628D01*
X180785713Y-131550057D02*
X180738094Y-131502438D01*
X180738094Y-131502438D02*
X180642856Y-131454819D01*
X180642856Y-131454819D02*
X180404761Y-131454819D01*
X180404761Y-131454819D02*
X180309523Y-131502438D01*
X180309523Y-131502438D02*
X180261904Y-131550057D01*
X180261904Y-131550057D02*
X180214285Y-131645295D01*
X180214285Y-131645295D02*
X180214285Y-131740533D01*
X180214285Y-131740533D02*
X180261904Y-131883390D01*
X180261904Y-131883390D02*
X180833332Y-132454819D01*
X180833332Y-132454819D02*
X180214285Y-132454819D01*
X175190476Y-132454819D02*
X175761904Y-132454819D01*
X175476190Y-132454819D02*
X175476190Y-131454819D01*
X175476190Y-131454819D02*
X175571428Y-131597676D01*
X175571428Y-131597676D02*
X175666666Y-131692914D01*
X175666666Y-131692914D02*
X175761904Y-131740533D01*
X174571428Y-131454819D02*
X174476190Y-131454819D01*
X174476190Y-131454819D02*
X174380952Y-131502438D01*
X174380952Y-131502438D02*
X174333333Y-131550057D01*
X174333333Y-131550057D02*
X174285714Y-131645295D01*
X174285714Y-131645295D02*
X174238095Y-131835771D01*
X174238095Y-131835771D02*
X174238095Y-132073866D01*
X174238095Y-132073866D02*
X174285714Y-132264342D01*
X174285714Y-132264342D02*
X174333333Y-132359580D01*
X174333333Y-132359580D02*
X174380952Y-132407200D01*
X174380952Y-132407200D02*
X174476190Y-132454819D01*
X174476190Y-132454819D02*
X174571428Y-132454819D01*
X174571428Y-132454819D02*
X174666666Y-132407200D01*
X174666666Y-132407200D02*
X174714285Y-132359580D01*
X174714285Y-132359580D02*
X174761904Y-132264342D01*
X174761904Y-132264342D02*
X174809523Y-132073866D01*
X174809523Y-132073866D02*
X174809523Y-131835771D01*
X174809523Y-131835771D02*
X174761904Y-131645295D01*
X174761904Y-131645295D02*
X174714285Y-131550057D01*
X174714285Y-131550057D02*
X174666666Y-131502438D01*
X174666666Y-131502438D02*
X174571428Y-131454819D01*
X181166666Y-129454819D02*
X181499999Y-128978628D01*
X181738094Y-129454819D02*
X181738094Y-128454819D01*
X181738094Y-128454819D02*
X181357142Y-128454819D01*
X181357142Y-128454819D02*
X181261904Y-128502438D01*
X181261904Y-128502438D02*
X181214285Y-128550057D01*
X181214285Y-128550057D02*
X181166666Y-128645295D01*
X181166666Y-128645295D02*
X181166666Y-128788152D01*
X181166666Y-128788152D02*
X181214285Y-128883390D01*
X181214285Y-128883390D02*
X181261904Y-128931009D01*
X181261904Y-128931009D02*
X181357142Y-128978628D01*
X181357142Y-128978628D02*
X181738094Y-128978628D01*
X180833332Y-128454819D02*
X180214285Y-128454819D01*
X180214285Y-128454819D02*
X180547618Y-128835771D01*
X180547618Y-128835771D02*
X180404761Y-128835771D01*
X180404761Y-128835771D02*
X180309523Y-128883390D01*
X180309523Y-128883390D02*
X180261904Y-128931009D01*
X180261904Y-128931009D02*
X180214285Y-129026247D01*
X180214285Y-129026247D02*
X180214285Y-129264342D01*
X180214285Y-129264342D02*
X180261904Y-129359580D01*
X180261904Y-129359580D02*
X180309523Y-129407200D01*
X180309523Y-129407200D02*
X180404761Y-129454819D01*
X180404761Y-129454819D02*
X180690475Y-129454819D01*
X180690475Y-129454819D02*
X180785713Y-129407200D01*
X180785713Y-129407200D02*
X180833332Y-129359580D01*
X175190476Y-129454819D02*
X175761904Y-129454819D01*
X175476190Y-129454819D02*
X175476190Y-128454819D01*
X175476190Y-128454819D02*
X175571428Y-128597676D01*
X175571428Y-128597676D02*
X175666666Y-128692914D01*
X175666666Y-128692914D02*
X175761904Y-128740533D01*
X174571428Y-128454819D02*
X174476190Y-128454819D01*
X174476190Y-128454819D02*
X174380952Y-128502438D01*
X174380952Y-128502438D02*
X174333333Y-128550057D01*
X174333333Y-128550057D02*
X174285714Y-128645295D01*
X174285714Y-128645295D02*
X174238095Y-128835771D01*
X174238095Y-128835771D02*
X174238095Y-129073866D01*
X174238095Y-129073866D02*
X174285714Y-129264342D01*
X174285714Y-129264342D02*
X174333333Y-129359580D01*
X174333333Y-129359580D02*
X174380952Y-129407200D01*
X174380952Y-129407200D02*
X174476190Y-129454819D01*
X174476190Y-129454819D02*
X174571428Y-129454819D01*
X174571428Y-129454819D02*
X174666666Y-129407200D01*
X174666666Y-129407200D02*
X174714285Y-129359580D01*
X174714285Y-129359580D02*
X174761904Y-129264342D01*
X174761904Y-129264342D02*
X174809523Y-129073866D01*
X174809523Y-129073866D02*
X174809523Y-128835771D01*
X174809523Y-128835771D02*
X174761904Y-128645295D01*
X174761904Y-128645295D02*
X174714285Y-128550057D01*
X174714285Y-128550057D02*
X174666666Y-128502438D01*
X174666666Y-128502438D02*
X174571428Y-128454819D01*
X181166666Y-130954819D02*
X181499999Y-130478628D01*
X181738094Y-130954819D02*
X181738094Y-129954819D01*
X181738094Y-129954819D02*
X181357142Y-129954819D01*
X181357142Y-129954819D02*
X181261904Y-130002438D01*
X181261904Y-130002438D02*
X181214285Y-130050057D01*
X181214285Y-130050057D02*
X181166666Y-130145295D01*
X181166666Y-130145295D02*
X181166666Y-130288152D01*
X181166666Y-130288152D02*
X181214285Y-130383390D01*
X181214285Y-130383390D02*
X181261904Y-130431009D01*
X181261904Y-130431009D02*
X181357142Y-130478628D01*
X181357142Y-130478628D02*
X181738094Y-130478628D01*
X180309523Y-130288152D02*
X180309523Y-130954819D01*
X180547618Y-129907200D02*
X180785713Y-130621485D01*
X180785713Y-130621485D02*
X180166666Y-130621485D01*
X175190476Y-130954819D02*
X175761904Y-130954819D01*
X175476190Y-130954819D02*
X175476190Y-129954819D01*
X175476190Y-129954819D02*
X175571428Y-130097676D01*
X175571428Y-130097676D02*
X175666666Y-130192914D01*
X175666666Y-130192914D02*
X175761904Y-130240533D01*
X174571428Y-129954819D02*
X174476190Y-129954819D01*
X174476190Y-129954819D02*
X174380952Y-130002438D01*
X174380952Y-130002438D02*
X174333333Y-130050057D01*
X174333333Y-130050057D02*
X174285714Y-130145295D01*
X174285714Y-130145295D02*
X174238095Y-130335771D01*
X174238095Y-130335771D02*
X174238095Y-130573866D01*
X174238095Y-130573866D02*
X174285714Y-130764342D01*
X174285714Y-130764342D02*
X174333333Y-130859580D01*
X174333333Y-130859580D02*
X174380952Y-130907200D01*
X174380952Y-130907200D02*
X174476190Y-130954819D01*
X174476190Y-130954819D02*
X174571428Y-130954819D01*
X174571428Y-130954819D02*
X174666666Y-130907200D01*
X174666666Y-130907200D02*
X174714285Y-130859580D01*
X174714285Y-130859580D02*
X174761904Y-130764342D01*
X174761904Y-130764342D02*
X174809523Y-130573866D01*
X174809523Y-130573866D02*
X174809523Y-130335771D01*
X174809523Y-130335771D02*
X174761904Y-130145295D01*
X174761904Y-130145295D02*
X174714285Y-130050057D01*
X174714285Y-130050057D02*
X174666666Y-130002438D01*
X174666666Y-130002438D02*
X174571428Y-129954819D01*
X178991666Y-121954819D02*
X179324999Y-121478628D01*
X179563094Y-121954819D02*
X179563094Y-120954819D01*
X179563094Y-120954819D02*
X179182142Y-120954819D01*
X179182142Y-120954819D02*
X179086904Y-121002438D01*
X179086904Y-121002438D02*
X179039285Y-121050057D01*
X179039285Y-121050057D02*
X178991666Y-121145295D01*
X178991666Y-121145295D02*
X178991666Y-121288152D01*
X178991666Y-121288152D02*
X179039285Y-121383390D01*
X179039285Y-121383390D02*
X179086904Y-121431009D01*
X179086904Y-121431009D02*
X179182142Y-121478628D01*
X179182142Y-121478628D02*
X179563094Y-121478628D01*
X178086904Y-120954819D02*
X178563094Y-120954819D01*
X178563094Y-120954819D02*
X178610713Y-121431009D01*
X178610713Y-121431009D02*
X178563094Y-121383390D01*
X178563094Y-121383390D02*
X178467856Y-121335771D01*
X178467856Y-121335771D02*
X178229761Y-121335771D01*
X178229761Y-121335771D02*
X178134523Y-121383390D01*
X178134523Y-121383390D02*
X178086904Y-121431009D01*
X178086904Y-121431009D02*
X178039285Y-121526247D01*
X178039285Y-121526247D02*
X178039285Y-121764342D01*
X178039285Y-121764342D02*
X178086904Y-121859580D01*
X178086904Y-121859580D02*
X178134523Y-121907200D01*
X178134523Y-121907200D02*
X178229761Y-121954819D01*
X178229761Y-121954819D02*
X178467856Y-121954819D01*
X178467856Y-121954819D02*
X178563094Y-121907200D01*
X178563094Y-121907200D02*
X178610713Y-121859580D01*
X178595238Y-124954819D02*
X179166666Y-124954819D01*
X178880952Y-124954819D02*
X178880952Y-123954819D01*
X178880952Y-123954819D02*
X178976190Y-124097676D01*
X178976190Y-124097676D02*
X179071428Y-124192914D01*
X179071428Y-124192914D02*
X179166666Y-124240533D01*
X177976190Y-123954819D02*
X177880952Y-123954819D01*
X177880952Y-123954819D02*
X177785714Y-124002438D01*
X177785714Y-124002438D02*
X177738095Y-124050057D01*
X177738095Y-124050057D02*
X177690476Y-124145295D01*
X177690476Y-124145295D02*
X177642857Y-124335771D01*
X177642857Y-124335771D02*
X177642857Y-124573866D01*
X177642857Y-124573866D02*
X177690476Y-124764342D01*
X177690476Y-124764342D02*
X177738095Y-124859580D01*
X177738095Y-124859580D02*
X177785714Y-124907200D01*
X177785714Y-124907200D02*
X177880952Y-124954819D01*
X177880952Y-124954819D02*
X177976190Y-124954819D01*
X177976190Y-124954819D02*
X178071428Y-124907200D01*
X178071428Y-124907200D02*
X178119047Y-124859580D01*
X178119047Y-124859580D02*
X178166666Y-124764342D01*
X178166666Y-124764342D02*
X178214285Y-124573866D01*
X178214285Y-124573866D02*
X178214285Y-124335771D01*
X178214285Y-124335771D02*
X178166666Y-124145295D01*
X178166666Y-124145295D02*
X178119047Y-124050057D01*
X178119047Y-124050057D02*
X178071428Y-124002438D01*
X178071428Y-124002438D02*
X177976190Y-123954819D01*
X177214285Y-124954819D02*
X177214285Y-123954819D01*
X177119047Y-124573866D02*
X176833333Y-124954819D01*
X176833333Y-124288152D02*
X177214285Y-124669104D01*
X183166666Y-137954819D02*
X183499999Y-137478628D01*
X183738094Y-137954819D02*
X183738094Y-136954819D01*
X183738094Y-136954819D02*
X183357142Y-136954819D01*
X183357142Y-136954819D02*
X183261904Y-137002438D01*
X183261904Y-137002438D02*
X183214285Y-137050057D01*
X183214285Y-137050057D02*
X183166666Y-137145295D01*
X183166666Y-137145295D02*
X183166666Y-137288152D01*
X183166666Y-137288152D02*
X183214285Y-137383390D01*
X183214285Y-137383390D02*
X183261904Y-137431009D01*
X183261904Y-137431009D02*
X183357142Y-137478628D01*
X183357142Y-137478628D02*
X183738094Y-137478628D01*
X182309523Y-136954819D02*
X182499999Y-136954819D01*
X182499999Y-136954819D02*
X182595237Y-137002438D01*
X182595237Y-137002438D02*
X182642856Y-137050057D01*
X182642856Y-137050057D02*
X182738094Y-137192914D01*
X182738094Y-137192914D02*
X182785713Y-137383390D01*
X182785713Y-137383390D02*
X182785713Y-137764342D01*
X182785713Y-137764342D02*
X182738094Y-137859580D01*
X182738094Y-137859580D02*
X182690475Y-137907200D01*
X182690475Y-137907200D02*
X182595237Y-137954819D01*
X182595237Y-137954819D02*
X182404761Y-137954819D01*
X182404761Y-137954819D02*
X182309523Y-137907200D01*
X182309523Y-137907200D02*
X182261904Y-137859580D01*
X182261904Y-137859580D02*
X182214285Y-137764342D01*
X182214285Y-137764342D02*
X182214285Y-137526247D01*
X182214285Y-137526247D02*
X182261904Y-137431009D01*
X182261904Y-137431009D02*
X182309523Y-137383390D01*
X182309523Y-137383390D02*
X182404761Y-137335771D01*
X182404761Y-137335771D02*
X182595237Y-137335771D01*
X182595237Y-137335771D02*
X182690475Y-137383390D01*
X182690475Y-137383390D02*
X182738094Y-137431009D01*
X182738094Y-137431009D02*
X182785713Y-137526247D01*
X176095238Y-136954819D02*
X176666666Y-136954819D01*
X176380952Y-136954819D02*
X176380952Y-135954819D01*
X176380952Y-135954819D02*
X176476190Y-136097676D01*
X176476190Y-136097676D02*
X176571428Y-136192914D01*
X176571428Y-136192914D02*
X176666666Y-136240533D01*
X175476190Y-135954819D02*
X175380952Y-135954819D01*
X175380952Y-135954819D02*
X175285714Y-136002438D01*
X175285714Y-136002438D02*
X175238095Y-136050057D01*
X175238095Y-136050057D02*
X175190476Y-136145295D01*
X175190476Y-136145295D02*
X175142857Y-136335771D01*
X175142857Y-136335771D02*
X175142857Y-136573866D01*
X175142857Y-136573866D02*
X175190476Y-136764342D01*
X175190476Y-136764342D02*
X175238095Y-136859580D01*
X175238095Y-136859580D02*
X175285714Y-136907200D01*
X175285714Y-136907200D02*
X175380952Y-136954819D01*
X175380952Y-136954819D02*
X175476190Y-136954819D01*
X175476190Y-136954819D02*
X175571428Y-136907200D01*
X175571428Y-136907200D02*
X175619047Y-136859580D01*
X175619047Y-136859580D02*
X175666666Y-136764342D01*
X175666666Y-136764342D02*
X175714285Y-136573866D01*
X175714285Y-136573866D02*
X175714285Y-136335771D01*
X175714285Y-136335771D02*
X175666666Y-136145295D01*
X175666666Y-136145295D02*
X175619047Y-136050057D01*
X175619047Y-136050057D02*
X175571428Y-136002438D01*
X175571428Y-136002438D02*
X175476190Y-135954819D01*
X174714285Y-136954819D02*
X174714285Y-135954819D01*
X174619047Y-136573866D02*
X174333333Y-136954819D01*
X174333333Y-136288152D02*
X174714285Y-136669104D01*
X181166666Y-138454819D02*
X181499999Y-137978628D01*
X181738094Y-138454819D02*
X181738094Y-137454819D01*
X181738094Y-137454819D02*
X181357142Y-137454819D01*
X181357142Y-137454819D02*
X181261904Y-137502438D01*
X181261904Y-137502438D02*
X181214285Y-137550057D01*
X181214285Y-137550057D02*
X181166666Y-137645295D01*
X181166666Y-137645295D02*
X181166666Y-137788152D01*
X181166666Y-137788152D02*
X181214285Y-137883390D01*
X181214285Y-137883390D02*
X181261904Y-137931009D01*
X181261904Y-137931009D02*
X181357142Y-137978628D01*
X181357142Y-137978628D02*
X181738094Y-137978628D01*
X180833332Y-137454819D02*
X180166666Y-137454819D01*
X180166666Y-137454819D02*
X180595237Y-138454819D01*
X176095238Y-138454819D02*
X176666666Y-138454819D01*
X176380952Y-138454819D02*
X176380952Y-137454819D01*
X176380952Y-137454819D02*
X176476190Y-137597676D01*
X176476190Y-137597676D02*
X176571428Y-137692914D01*
X176571428Y-137692914D02*
X176666666Y-137740533D01*
X175476190Y-137454819D02*
X175380952Y-137454819D01*
X175380952Y-137454819D02*
X175285714Y-137502438D01*
X175285714Y-137502438D02*
X175238095Y-137550057D01*
X175238095Y-137550057D02*
X175190476Y-137645295D01*
X175190476Y-137645295D02*
X175142857Y-137835771D01*
X175142857Y-137835771D02*
X175142857Y-138073866D01*
X175142857Y-138073866D02*
X175190476Y-138264342D01*
X175190476Y-138264342D02*
X175238095Y-138359580D01*
X175238095Y-138359580D02*
X175285714Y-138407200D01*
X175285714Y-138407200D02*
X175380952Y-138454819D01*
X175380952Y-138454819D02*
X175476190Y-138454819D01*
X175476190Y-138454819D02*
X175571428Y-138407200D01*
X175571428Y-138407200D02*
X175619047Y-138359580D01*
X175619047Y-138359580D02*
X175666666Y-138264342D01*
X175666666Y-138264342D02*
X175714285Y-138073866D01*
X175714285Y-138073866D02*
X175714285Y-137835771D01*
X175714285Y-137835771D02*
X175666666Y-137645295D01*
X175666666Y-137645295D02*
X175619047Y-137550057D01*
X175619047Y-137550057D02*
X175571428Y-137502438D01*
X175571428Y-137502438D02*
X175476190Y-137454819D01*
X174714285Y-138454819D02*
X174714285Y-137454819D01*
X174619047Y-138073866D02*
X174333333Y-138454819D01*
X174333333Y-137788152D02*
X174714285Y-138169104D01*
X181166666Y-139954819D02*
X181499999Y-139478628D01*
X181738094Y-139954819D02*
X181738094Y-138954819D01*
X181738094Y-138954819D02*
X181357142Y-138954819D01*
X181357142Y-138954819D02*
X181261904Y-139002438D01*
X181261904Y-139002438D02*
X181214285Y-139050057D01*
X181214285Y-139050057D02*
X181166666Y-139145295D01*
X181166666Y-139145295D02*
X181166666Y-139288152D01*
X181166666Y-139288152D02*
X181214285Y-139383390D01*
X181214285Y-139383390D02*
X181261904Y-139431009D01*
X181261904Y-139431009D02*
X181357142Y-139478628D01*
X181357142Y-139478628D02*
X181738094Y-139478628D01*
X180595237Y-139383390D02*
X180690475Y-139335771D01*
X180690475Y-139335771D02*
X180738094Y-139288152D01*
X180738094Y-139288152D02*
X180785713Y-139192914D01*
X180785713Y-139192914D02*
X180785713Y-139145295D01*
X180785713Y-139145295D02*
X180738094Y-139050057D01*
X180738094Y-139050057D02*
X180690475Y-139002438D01*
X180690475Y-139002438D02*
X180595237Y-138954819D01*
X180595237Y-138954819D02*
X180404761Y-138954819D01*
X180404761Y-138954819D02*
X180309523Y-139002438D01*
X180309523Y-139002438D02*
X180261904Y-139050057D01*
X180261904Y-139050057D02*
X180214285Y-139145295D01*
X180214285Y-139145295D02*
X180214285Y-139192914D01*
X180214285Y-139192914D02*
X180261904Y-139288152D01*
X180261904Y-139288152D02*
X180309523Y-139335771D01*
X180309523Y-139335771D02*
X180404761Y-139383390D01*
X180404761Y-139383390D02*
X180595237Y-139383390D01*
X180595237Y-139383390D02*
X180690475Y-139431009D01*
X180690475Y-139431009D02*
X180738094Y-139478628D01*
X180738094Y-139478628D02*
X180785713Y-139573866D01*
X180785713Y-139573866D02*
X180785713Y-139764342D01*
X180785713Y-139764342D02*
X180738094Y-139859580D01*
X180738094Y-139859580D02*
X180690475Y-139907200D01*
X180690475Y-139907200D02*
X180595237Y-139954819D01*
X180595237Y-139954819D02*
X180404761Y-139954819D01*
X180404761Y-139954819D02*
X180309523Y-139907200D01*
X180309523Y-139907200D02*
X180261904Y-139859580D01*
X180261904Y-139859580D02*
X180214285Y-139764342D01*
X180214285Y-139764342D02*
X180214285Y-139573866D01*
X180214285Y-139573866D02*
X180261904Y-139478628D01*
X180261904Y-139478628D02*
X180309523Y-139431009D01*
X180309523Y-139431009D02*
X180404761Y-139383390D01*
X176095238Y-139954819D02*
X176666666Y-139954819D01*
X176380952Y-139954819D02*
X176380952Y-138954819D01*
X176380952Y-138954819D02*
X176476190Y-139097676D01*
X176476190Y-139097676D02*
X176571428Y-139192914D01*
X176571428Y-139192914D02*
X176666666Y-139240533D01*
X175476190Y-138954819D02*
X175380952Y-138954819D01*
X175380952Y-138954819D02*
X175285714Y-139002438D01*
X175285714Y-139002438D02*
X175238095Y-139050057D01*
X175238095Y-139050057D02*
X175190476Y-139145295D01*
X175190476Y-139145295D02*
X175142857Y-139335771D01*
X175142857Y-139335771D02*
X175142857Y-139573866D01*
X175142857Y-139573866D02*
X175190476Y-139764342D01*
X175190476Y-139764342D02*
X175238095Y-139859580D01*
X175238095Y-139859580D02*
X175285714Y-139907200D01*
X175285714Y-139907200D02*
X175380952Y-139954819D01*
X175380952Y-139954819D02*
X175476190Y-139954819D01*
X175476190Y-139954819D02*
X175571428Y-139907200D01*
X175571428Y-139907200D02*
X175619047Y-139859580D01*
X175619047Y-139859580D02*
X175666666Y-139764342D01*
X175666666Y-139764342D02*
X175714285Y-139573866D01*
X175714285Y-139573866D02*
X175714285Y-139335771D01*
X175714285Y-139335771D02*
X175666666Y-139145295D01*
X175666666Y-139145295D02*
X175619047Y-139050057D01*
X175619047Y-139050057D02*
X175571428Y-139002438D01*
X175571428Y-139002438D02*
X175476190Y-138954819D01*
X174714285Y-139954819D02*
X174714285Y-138954819D01*
X174619047Y-139573866D02*
X174333333Y-139954819D01*
X174333333Y-139288152D02*
X174714285Y-139669104D01*
X185261904Y-119954819D02*
X184690476Y-119954819D01*
X184976190Y-120954819D02*
X184976190Y-119954819D01*
X184357142Y-120954819D02*
X184357142Y-119954819D01*
X184357142Y-119954819D02*
X183976190Y-119954819D01*
X183976190Y-119954819D02*
X183880952Y-120002438D01*
X183880952Y-120002438D02*
X183833333Y-120050057D01*
X183833333Y-120050057D02*
X183785714Y-120145295D01*
X183785714Y-120145295D02*
X183785714Y-120288152D01*
X183785714Y-120288152D02*
X183833333Y-120383390D01*
X183833333Y-120383390D02*
X183880952Y-120431009D01*
X183880952Y-120431009D02*
X183976190Y-120478628D01*
X183976190Y-120478628D02*
X184357142Y-120478628D01*
X182833333Y-120954819D02*
X183404761Y-120954819D01*
X183119047Y-120954819D02*
X183119047Y-119954819D01*
X183119047Y-119954819D02*
X183214285Y-120097676D01*
X183214285Y-120097676D02*
X183309523Y-120192914D01*
X183309523Y-120192914D02*
X183404761Y-120240533D01*
X174154819Y-126238095D02*
X174964342Y-126238095D01*
X174964342Y-126238095D02*
X175059580Y-126285714D01*
X175059580Y-126285714D02*
X175107200Y-126333333D01*
X175107200Y-126333333D02*
X175154819Y-126428571D01*
X175154819Y-126428571D02*
X175154819Y-126619047D01*
X175154819Y-126619047D02*
X175107200Y-126714285D01*
X175107200Y-126714285D02*
X175059580Y-126761904D01*
X175059580Y-126761904D02*
X174964342Y-126809523D01*
X174964342Y-126809523D02*
X174154819Y-126809523D01*
X175154819Y-127809523D02*
X175154819Y-127238095D01*
X175154819Y-127523809D02*
X174154819Y-127523809D01*
X174154819Y-127523809D02*
X174297676Y-127428571D01*
X174297676Y-127428571D02*
X174392914Y-127333333D01*
X174392914Y-127333333D02*
X174440533Y-127238095D01*
X178666666Y-133954819D02*
X178999999Y-133478628D01*
X179238094Y-133954819D02*
X179238094Y-132954819D01*
X179238094Y-132954819D02*
X178857142Y-132954819D01*
X178857142Y-132954819D02*
X178761904Y-133002438D01*
X178761904Y-133002438D02*
X178714285Y-133050057D01*
X178714285Y-133050057D02*
X178666666Y-133145295D01*
X178666666Y-133145295D02*
X178666666Y-133288152D01*
X178666666Y-133288152D02*
X178714285Y-133383390D01*
X178714285Y-133383390D02*
X178761904Y-133431009D01*
X178761904Y-133431009D02*
X178857142Y-133478628D01*
X178857142Y-133478628D02*
X179238094Y-133478628D01*
X178190475Y-133954819D02*
X177999999Y-133954819D01*
X177999999Y-133954819D02*
X177904761Y-133907200D01*
X177904761Y-133907200D02*
X177857142Y-133859580D01*
X177857142Y-133859580D02*
X177761904Y-133716723D01*
X177761904Y-133716723D02*
X177714285Y-133526247D01*
X177714285Y-133526247D02*
X177714285Y-133145295D01*
X177714285Y-133145295D02*
X177761904Y-133050057D01*
X177761904Y-133050057D02*
X177809523Y-133002438D01*
X177809523Y-133002438D02*
X177904761Y-132954819D01*
X177904761Y-132954819D02*
X178095237Y-132954819D01*
X178095237Y-132954819D02*
X178190475Y-133002438D01*
X178190475Y-133002438D02*
X178238094Y-133050057D01*
X178238094Y-133050057D02*
X178285713Y-133145295D01*
X178285713Y-133145295D02*
X178285713Y-133383390D01*
X178285713Y-133383390D02*
X178238094Y-133478628D01*
X178238094Y-133478628D02*
X178190475Y-133526247D01*
X178190475Y-133526247D02*
X178095237Y-133573866D01*
X178095237Y-133573866D02*
X177904761Y-133573866D01*
X177904761Y-133573866D02*
X177809523Y-133526247D01*
X177809523Y-133526247D02*
X177761904Y-133478628D01*
X177761904Y-133478628D02*
X177714285Y-133383390D01*
X176095238Y-135454819D02*
X176666666Y-135454819D01*
X176380952Y-135454819D02*
X176380952Y-134454819D01*
X176380952Y-134454819D02*
X176476190Y-134597676D01*
X176476190Y-134597676D02*
X176571428Y-134692914D01*
X176571428Y-134692914D02*
X176666666Y-134740533D01*
X175476190Y-134454819D02*
X175380952Y-134454819D01*
X175380952Y-134454819D02*
X175285714Y-134502438D01*
X175285714Y-134502438D02*
X175238095Y-134550057D01*
X175238095Y-134550057D02*
X175190476Y-134645295D01*
X175190476Y-134645295D02*
X175142857Y-134835771D01*
X175142857Y-134835771D02*
X175142857Y-135073866D01*
X175142857Y-135073866D02*
X175190476Y-135264342D01*
X175190476Y-135264342D02*
X175238095Y-135359580D01*
X175238095Y-135359580D02*
X175285714Y-135407200D01*
X175285714Y-135407200D02*
X175380952Y-135454819D01*
X175380952Y-135454819D02*
X175476190Y-135454819D01*
X175476190Y-135454819D02*
X175571428Y-135407200D01*
X175571428Y-135407200D02*
X175619047Y-135359580D01*
X175619047Y-135359580D02*
X175666666Y-135264342D01*
X175666666Y-135264342D02*
X175714285Y-135073866D01*
X175714285Y-135073866D02*
X175714285Y-134835771D01*
X175714285Y-134835771D02*
X175666666Y-134645295D01*
X175666666Y-134645295D02*
X175619047Y-134550057D01*
X175619047Y-134550057D02*
X175571428Y-134502438D01*
X175571428Y-134502438D02*
X175476190Y-134454819D01*
X174714285Y-135454819D02*
X174714285Y-134454819D01*
X174619047Y-135073866D02*
X174333333Y-135454819D01*
X174333333Y-134788152D02*
X174714285Y-135169104D01*
X181966666Y-118259580D02*
X182014285Y-118307200D01*
X182014285Y-118307200D02*
X182157142Y-118354819D01*
X182157142Y-118354819D02*
X182252380Y-118354819D01*
X182252380Y-118354819D02*
X182395237Y-118307200D01*
X182395237Y-118307200D02*
X182490475Y-118211961D01*
X182490475Y-118211961D02*
X182538094Y-118116723D01*
X182538094Y-118116723D02*
X182585713Y-117926247D01*
X182585713Y-117926247D02*
X182585713Y-117783390D01*
X182585713Y-117783390D02*
X182538094Y-117592914D01*
X182538094Y-117592914D02*
X182490475Y-117497676D01*
X182490475Y-117497676D02*
X182395237Y-117402438D01*
X182395237Y-117402438D02*
X182252380Y-117354819D01*
X182252380Y-117354819D02*
X182157142Y-117354819D01*
X182157142Y-117354819D02*
X182014285Y-117402438D01*
X182014285Y-117402438D02*
X181966666Y-117450057D01*
X181109523Y-117688152D02*
X181109523Y-118354819D01*
X181347618Y-117307200D02*
X181585713Y-118021485D01*
X181585713Y-118021485D02*
X180966666Y-118021485D01*
X180414285Y-117854819D02*
X180319047Y-117854819D01*
X180319047Y-117854819D02*
X180223809Y-117902438D01*
X180223809Y-117902438D02*
X180176190Y-117950057D01*
X180176190Y-117950057D02*
X180128571Y-118045295D01*
X180128571Y-118045295D02*
X180080952Y-118235771D01*
X180080952Y-118235771D02*
X180080952Y-118473866D01*
X180080952Y-118473866D02*
X180128571Y-118664342D01*
X180128571Y-118664342D02*
X180176190Y-118759580D01*
X180176190Y-118759580D02*
X180223809Y-118807200D01*
X180223809Y-118807200D02*
X180319047Y-118854819D01*
X180319047Y-118854819D02*
X180414285Y-118854819D01*
X180414285Y-118854819D02*
X180509523Y-118807200D01*
X180509523Y-118807200D02*
X180557142Y-118759580D01*
X180557142Y-118759580D02*
X180604761Y-118664342D01*
X180604761Y-118664342D02*
X180652380Y-118473866D01*
X180652380Y-118473866D02*
X180652380Y-118235771D01*
X180652380Y-118235771D02*
X180604761Y-118045295D01*
X180604761Y-118045295D02*
X180557142Y-117950057D01*
X180557142Y-117950057D02*
X180509523Y-117902438D01*
X180509523Y-117902438D02*
X180414285Y-117854819D01*
X179652380Y-118759580D02*
X179604761Y-118807200D01*
X179604761Y-118807200D02*
X179652380Y-118854819D01*
X179652380Y-118854819D02*
X179699999Y-118807200D01*
X179699999Y-118807200D02*
X179652380Y-118759580D01*
X179652380Y-118759580D02*
X179652380Y-118854819D01*
X178652381Y-118854819D02*
X179223809Y-118854819D01*
X178938095Y-118854819D02*
X178938095Y-117854819D01*
X178938095Y-117854819D02*
X179033333Y-117997676D01*
X179033333Y-117997676D02*
X179128571Y-118092914D01*
X179128571Y-118092914D02*
X179223809Y-118140533D01*
X177795238Y-118188152D02*
X177795238Y-118854819D01*
X178223809Y-118188152D02*
X178223809Y-118711961D01*
X178223809Y-118711961D02*
X178176190Y-118807200D01*
X178176190Y-118807200D02*
X178080952Y-118854819D01*
X178080952Y-118854819D02*
X177938095Y-118854819D01*
X177938095Y-118854819D02*
X177842857Y-118807200D01*
X177842857Y-118807200D02*
X177795238Y-118759580D01*
X185595238Y-135050057D02*
X185690476Y-135002438D01*
X185690476Y-135002438D02*
X185785714Y-134907200D01*
X185785714Y-134907200D02*
X185928571Y-134764342D01*
X185928571Y-134764342D02*
X186023809Y-134716723D01*
X186023809Y-134716723D02*
X186119047Y-134716723D01*
X186071428Y-134954819D02*
X186166666Y-134907200D01*
X186166666Y-134907200D02*
X186261904Y-134811961D01*
X186261904Y-134811961D02*
X186309523Y-134621485D01*
X186309523Y-134621485D02*
X186309523Y-134288152D01*
X186309523Y-134288152D02*
X186261904Y-134097676D01*
X186261904Y-134097676D02*
X186166666Y-134002438D01*
X186166666Y-134002438D02*
X186071428Y-133954819D01*
X186071428Y-133954819D02*
X185880952Y-133954819D01*
X185880952Y-133954819D02*
X185785714Y-134002438D01*
X185785714Y-134002438D02*
X185690476Y-134097676D01*
X185690476Y-134097676D02*
X185642857Y-134288152D01*
X185642857Y-134288152D02*
X185642857Y-134621485D01*
X185642857Y-134621485D02*
X185690476Y-134811961D01*
X185690476Y-134811961D02*
X185785714Y-134907200D01*
X185785714Y-134907200D02*
X185880952Y-134954819D01*
X185880952Y-134954819D02*
X186071428Y-134954819D01*
X184690476Y-134954819D02*
X185261904Y-134954819D01*
X184976190Y-134954819D02*
X184976190Y-133954819D01*
X184976190Y-133954819D02*
X185071428Y-134097676D01*
X185071428Y-134097676D02*
X185166666Y-134192914D01*
X185166666Y-134192914D02*
X185261904Y-134240533D01*
D11*
%TO.C,C1*%
X175859420Y-116490000D02*
X176140580Y-116490000D01*
X175859420Y-117510000D02*
X176140580Y-117510000D01*
%TO.C,C2*%
X175892164Y-115140000D02*
X176107836Y-115140000D01*
X175892164Y-115860000D02*
X176107836Y-115860000D01*
%TO.C,R1*%
X182737258Y-130522500D02*
X182262742Y-130522500D01*
X182737258Y-129477500D02*
X182262742Y-129477500D01*
%TO.C,R2*%
X177762742Y-131477500D02*
X178237258Y-131477500D01*
X177762742Y-132522500D02*
X178237258Y-132522500D01*
%TO.C,R3*%
X177762742Y-128477500D02*
X178237258Y-128477500D01*
X177762742Y-129522500D02*
X178237258Y-129522500D01*
%TO.C,R4*%
X177762742Y-129977500D02*
X178237258Y-129977500D01*
X177762742Y-131022500D02*
X178237258Y-131022500D01*
%TO.C,R5*%
X178087742Y-122477500D02*
X178562258Y-122477500D01*
X178087742Y-123522500D02*
X178562258Y-123522500D01*
%TO.C,R6*%
X178262742Y-135977500D02*
X178737258Y-135977500D01*
X178262742Y-137022500D02*
X178737258Y-137022500D01*
%TO.C,R7*%
X178262742Y-137477500D02*
X178737258Y-137477500D01*
X178262742Y-138522500D02*
X178737258Y-138522500D01*
%TO.C,R8*%
X178262742Y-138977500D02*
X178737258Y-138977500D01*
X178262742Y-140022500D02*
X178737258Y-140022500D01*
D10*
%TO.C,TP1*%
X182900000Y-120000000D02*
G75*
G03*
X182900000Y-120000000I-1400000J0D01*
G01*
D11*
%TO.C,U1*%
X166500000Y-138650000D02*
X166500000Y-115350000D01*
X168240000Y-138650000D02*
X166500000Y-138650000D01*
X172300000Y-138650000D02*
X170960000Y-138650000D01*
X172300000Y-137160000D02*
X172300000Y-138650000D01*
X172300000Y-137160000D02*
X173500000Y-137160000D01*
X172300000Y-116840000D02*
X172300000Y-115350000D01*
X166500000Y-115350000D02*
X168240000Y-115350000D01*
X172300000Y-115350000D02*
X170960000Y-115350000D01*
%TO.C,R9*%
X178262742Y-134477500D02*
X178737258Y-134477500D01*
X178262742Y-135522500D02*
X178737258Y-135522500D01*
%TO.C,C4*%
X175859420Y-118490000D02*
X176140580Y-118490000D01*
X175859420Y-119510000D02*
X176140580Y-119510000D01*
%TO.C,Q1*%
X182537500Y-136060000D02*
X183187500Y-136060000D01*
X182537500Y-136060000D02*
X181887500Y-136060000D01*
X182537500Y-132940000D02*
X184212500Y-132940000D01*
X182537500Y-132940000D02*
X181887500Y-132940000D01*
%TD*%
M02*
